<svg width="17" height="9" viewBox="0 0 17 9" fill="none" xmlns="http://www.w3.org/2000/svg">
<path d="M16.117 0.586257C16.1171 0.663217 16.1019 0.73943 16.0725 0.810542C16.0431 0.881655 16 0.946274 15.9456 1.00071L8.7229 8.22298C8.61302 8.33282 8.46401 8.39453 8.30864 8.39453C8.15327 8.39453 8.00427 8.33282 7.89439 8.22298L0.671729 1.00071C0.617302 0.946309 0.574124 0.881722 0.544658 0.810634C0.515193 0.739545 0.500018 0.663349 0.5 0.586396C0.499982 0.509443 0.515121 0.43324 0.544552 0.362139C0.573984 0.291037 0.617133 0.226426 0.671534 0.172C0.725935 0.117573 0.790523 0.0743952 0.861612 0.0449295C0.9327 0.0154638 1.0089 0.000287987 1.08585 0.000269864C1.1628 0.000251741 1.239 0.0153913 1.31011 0.0448236C1.38121 0.074255 1.44582 0.117404 1.50024 0.171805L8.30845 6.98001L15.1167 0.171805C15.1986 0.0898059 15.303 0.0339578 15.4167 0.0113271C15.5304 -0.0113027 15.6483 0.000299745 15.7554 0.0446704C15.8625 0.0890401 15.954 0.164184 16.0184 0.260589C16.0828 0.356995 16.1171 0.470331 16.117 0.586257Z" fill="black"/>
</svg>
