<svg width="32" height="32" viewBox="0 0 32 32" fill="none" xmlns="http://www.w3.org/2000/svg">
<g clip-path="url(#clip0_2455_4758)">
<path d="M16 32C24.8366 32 32 24.8366 32 16C32 7.16344 24.8366 0 16 0C7.16344 0 0 7.16344 0 16C0 24.8366 7.16344 32 16 32Z" fill="#002D44"/>
<path d="M14.2948 17.9949H12.6899L13.6931 12.1685H15.298L14.2948 17.9949Z" fill="white"/>
<path d="M11.3395 12.1685L9.80932 16.1758L9.62838 15.3128L9.6285 15.3131L9.08844 12.6932C9.08844 12.6932 9.02319 12.1685 8.32707 12.1685H5.79763L5.76807 12.267C5.76807 12.267 6.54182 12.4191 7.44688 12.9332L8.84125 17.9949H10.5134L13.0669 12.1685H11.3395Z" fill="white"/>
<path d="M23.9635 17.9949H25.4372L24.1522 12.1685H22.8619C22.266 12.1685 22.121 12.6026 22.121 12.6026L19.7275 17.9949H21.4003L21.7349 17.1295H23.7753L23.9635 17.9949ZM22.1975 15.9338L23.0408 13.7534L23.5152 15.9338H22.1975Z" fill="white"/>
<path d="M19.8528 13.5693L20.0819 12.318C20.0819 12.318 19.3751 12.064 18.6383 12.064C17.8419 12.064 15.9504 12.3932 15.9504 13.9928C15.9504 15.4982 18.1703 15.5169 18.1703 16.3073C18.1703 17.0977 16.1793 16.9564 15.5223 16.4578L15.2834 17.7658C15.2834 17.7658 16.0001 18.095 17.0953 18.095C18.1903 18.095 19.8428 17.5588 19.8428 16.1003C19.8428 14.5855 17.6029 14.4443 17.6029 13.7858C17.603 13.1271 19.166 13.2117 19.8528 13.5693Z" fill="white"/>
<path d="M9.62857 15.3127L9.0885 12.6927C9.0885 12.6927 9.02325 12.168 8.32713 12.168H5.79763L5.76807 12.2665C5.76807 12.2665 6.98388 12.5047 8.15019 13.3969C9.26494 14.2497 9.62857 15.3127 9.62857 15.3127Z" fill="#FAA634"/>
<path d="M22.6238 20.348C22.6823 20.4582 22.7681 20.5418 22.8808 20.5988C22.9933 20.6559 23.1118 20.6844 23.236 20.6844C23.4366 20.6844 23.6031 20.6159 23.7354 20.479C23.8675 20.342 23.9337 20.1694 23.9337 19.9611C23.9337 19.7546 23.8681 19.5837 23.7373 19.4485C23.6063 19.3134 23.4383 19.2456 23.2334 19.2456C23.1007 19.2456 22.9805 19.2755 22.873 19.3351C22.7653 19.3947 22.6822 19.4812 22.6236 19.5944C22.5649 19.7074 22.5356 19.8246 22.5356 19.9455C22.5358 20.1036 22.565 20.2379 22.6238 20.348Z" fill="white"/>
<path d="M21.5865 20.6533H21.945V20.2281C21.945 19.9939 21.955 19.8401 21.975 19.7667C21.995 19.6932 22.0224 19.6425 22.0572 19.6144C22.0921 19.5863 22.1347 19.5722 22.1848 19.5722C22.2365 19.5722 22.2927 19.5921 22.3532 19.6319L22.4642 19.3144C22.3884 19.2685 22.3099 19.2456 22.2282 19.2456C22.1702 19.2456 22.1186 19.2604 22.0732 19.2897C22.0277 19.3191 21.9764 19.38 21.9194 19.4725V19.2768H21.5864L21.5865 20.6533Z" fill="white"/>
<path d="M20.584 19.567H20.7485V20.1671C20.7485 20.2958 20.7525 20.3814 20.76 20.4237C20.7694 20.4833 20.7863 20.5306 20.8105 20.5656C20.8347 20.6007 20.8727 20.6292 20.9247 20.6512C20.9766 20.6733 21.0349 20.6842 21.0994 20.6842C21.2048 20.6842 21.2992 20.666 21.3825 20.6298L21.352 20.3472C21.289 20.3705 21.241 20.3822 21.2079 20.3822C21.184 20.3822 21.1638 20.3762 21.1474 20.364C21.1308 20.352 21.1202 20.3366 21.1155 20.3181C21.1108 20.2995 21.1084 20.234 21.1084 20.1217V19.5669H21.3532V19.2766H21.1084V18.7905L20.7487 19.0031V19.2766H20.5841V19.567H20.584Z" fill="white"/>
<path d="M19.3766 20.4939C19.4945 20.6209 19.6524 20.6844 19.8505 20.6844C20.025 20.6844 20.164 20.6425 20.2676 20.5586C20.3715 20.4749 20.4415 20.3508 20.4781 20.1867L20.126 20.1257C20.1083 20.2216 20.0776 20.2892 20.0341 20.3285C19.9908 20.3679 19.9352 20.3875 19.8671 20.3875C19.7761 20.3875 19.7036 20.3539 19.6496 20.2865C19.5956 20.2191 19.5687 20.1037 19.5687 19.9404C19.5687 19.7935 19.5952 19.6887 19.6485 19.626C19.7015 19.5634 19.7728 19.532 19.862 19.532C19.9292 19.532 19.9838 19.5502 20.026 19.5865C20.068 19.6229 20.095 19.6769 20.1069 19.7485L20.4603 19.6837C20.4178 19.536 20.3479 19.426 20.2504 19.3538C20.153 19.2817 20.0218 19.2456 19.857 19.2456C19.6553 19.2456 19.4955 19.309 19.3773 19.4355C19.259 19.5621 19.2 19.739 19.2 19.9663C19.2 20.191 19.2589 20.3668 19.3766 20.4939Z" fill="white"/>
<path d="M17.8557 20.4497C17.9689 20.6062 18.1431 20.6843 18.3787 20.6843C18.5276 20.6843 18.6514 20.6495 18.7506 20.58C18.8496 20.5104 18.9221 20.4091 18.9679 20.276L18.6109 20.2151C18.5912 20.2843 18.5623 20.3344 18.5241 20.3655C18.4859 20.3965 18.4387 20.4122 18.3826 20.4122C18.3001 20.4122 18.2311 20.3821 18.1758 20.322C18.1206 20.262 18.0916 20.178 18.0891 20.0699H18.9871C18.9921 19.7909 18.9366 19.5837 18.8199 19.4485C18.7036 19.3134 18.5444 19.2456 18.3429 19.2456C18.1634 19.2456 18.0152 19.3102 17.8978 19.4394C17.7804 19.5686 17.7217 19.7472 17.7217 19.9753C17.7217 20.1664 17.7665 20.3244 17.8557 20.4497Z" fill="white"/>
<path d="M17.459 18.7529H17.1006V20.6531H17.459V18.7529Z" fill="white"/>
<path d="M15.3606 20.6531H16.7828V20.3329H15.7383V19.8157H16.6771V19.4956H15.7383V19.0744H16.7472V18.7529H15.3606V20.6531Z" fill="white"/>
<path d="M25.4465 19.7978C25.4465 19.6915 25.4398 19.6099 25.4267 19.5528C25.4135 19.4959 25.3902 19.4448 25.3565 19.3999C25.3229 19.355 25.2733 19.318 25.2079 19.2891C25.1424 19.2602 25.0702 19.2456 24.991 19.2456C24.8116 19.2456 24.6627 19.3234 24.5445 19.4789V19.2767H24.2117V20.6532H24.5701V20.0297C24.5701 19.876 24.5792 19.7705 24.5975 19.7135C24.6159 19.6565 24.6495 19.6107 24.6989 19.5762C24.7482 19.5416 24.8039 19.5243 24.866 19.5243C24.9144 19.5243 24.956 19.5364 24.9904 19.5605C25.0249 19.5848 25.0496 19.6187 25.065 19.6624C25.0804 19.7059 25.088 19.802 25.088 19.9507V20.6532H25.4464V19.7978H25.4465Z" fill="white"/>
<path d="M18.3644 19.5239C18.4377 19.5239 18.4996 19.5514 18.5507 19.6062C18.6017 19.6611 18.6284 19.7413 18.631 19.8466H18.0952C18.0945 19.7472 18.1195 19.6687 18.1705 19.6107C18.2217 19.5528 18.2863 19.5239 18.3644 19.5239Z" fill="#002D44"/>
<path d="M23.2348 19.5425C23.3282 19.5425 23.4068 19.5787 23.4701 19.6514C23.5335 19.724 23.565 19.8276 23.565 19.9624C23.565 20.1006 23.5335 20.2061 23.4701 20.2787C23.4067 20.3512 23.3282 20.3875 23.2348 20.3875C23.1411 20.3875 23.0626 20.3512 22.9988 20.2787C22.935 20.206 22.9031 20.1015 22.9031 19.965C22.9031 19.8285 22.935 19.7239 22.9988 19.6513C23.0625 19.5787 23.1411 19.5425 23.2348 19.5425Z" fill="#002D44"/>
</g>
<defs>
<clipPath id="clip0_2455_4758">
<rect width="32" height="32" fill="white"/>
</clipPath>
</defs>
</svg>
