<svg width="100" height="101" viewBox="0 0 100 101" fill="none" xmlns="http://www.w3.org/2000/svg">
<mask id="path-1-outside-1_2455_5087" maskUnits="userSpaceOnUse" x="1" y="26.1958" width="99" height="67" fill="black">
<rect fill="white" x="1" y="26.1958" width="99" height="67"/>
<path d="M9.43187 50.4933C8.13975 50.494 7.09389 51.5399 7.09322 52.8327V61.1531H5.67312C4.19656 61.1531 3 62.35 3 63.8262V85.8795C3 87.2231 3.99206 88.3321 5.28318 88.5212V89.3362C5.28318 89.9824 5.80678 90.5057 6.45267 90.5057C7.0989 90.5057 7.62217 89.9824 7.62217 89.3362V88.5523H19.7625V89.3362C19.7625 89.9824 20.2861 90.5057 20.932 90.5057C21.5782 90.5057 22.1015 89.9824 22.1015 89.3362V88.5212C22.452 88.4698 22.7791 88.3488 23.0718 88.1754C23.1694 88.3765 23.281 88.5687 23.4086 88.7498C24.1561 89.8113 25.3888 90.5067 26.7858 90.5067C29.0673 90.5067 30.9174 88.6572 30.9174 86.3757V72.31C30.4233 71.8219 30.1483 71.1225 30.2325 70.3817C30.4009 68.9031 30.6304 67.5205 30.9174 66.2307V56.2115H32.4662V61.3743C33.0954 59.9502 33.8362 58.7165 34.6886 57.683C35.1861 57.0769 35.6806 56.5968 36.1474 56.2115C37.3249 55.2395 38.3193 54.8913 38.6939 54.7874C39.2432 54.6079 39.8871 54.476 40.6145 54.3904C40.652 54.3857 40.6907 54.3824 40.7288 54.3781V54.336C40.6981 54.3249 40.6673 54.3139 40.6373 54.3022C38.3644 53.4428 36.7408 51.2505 36.7408 48.6806C36.7408 46.7707 37.6387 45.0696 39.0307 43.9672C39.5373 43.5659 40.11 43.2475 40.7292 43.025V36.4591C41.0052 36.8624 41.2898 37.3138 41.5829 37.8338C42.2799 39.0794 43.0033 40.6897 43.6853 42.7463C46.5606 43.1957 48.7696 45.682 48.7696 48.6813C48.7696 50.7827 47.684 52.6332 46.0463 53.7088C46.0848 54.0038 46.1222 54.3035 46.1586 54.6073C46.3902 54.6617 46.6127 54.7209 46.8189 54.7884C46.9953 54.8375 47.3137 54.9438 47.723 55.1429C48.2233 55.3862 48.8608 55.7704 49.5541 56.3739C50.2007 55.5345 50.883 54.9144 51.5229 54.4673C51.8564 54.234 52.1778 54.0463 52.4755 53.9002C52.794 52.6098 53.1177 51.4079 53.4439 50.2915C52.7739 49.2677 52.3806 48.0471 52.3806 46.7346C52.3806 43.6675 54.5131 41.096 57.372 40.407C57.6236 39.9619 57.8682 39.5596 58.1048 39.197L57.8893 40.3057C58.2184 40.2543 58.5529 40.2198 58.8964 40.2198C62.4894 40.2198 65.4118 43.1422 65.4118 46.7349C65.4118 50.3283 62.4894 53.2507 58.8964 53.2507C57.6744 53.2507 56.534 52.9062 55.5553 52.3187L55.3418 53.4177H63.0731C63.1707 53.4177 63.2586 53.4274 63.3348 53.4381C63.4153 53.4311 63.4968 53.4264 63.5797 53.4264C63.7073 53.4264 63.8346 53.4361 63.9589 53.4545C64.7555 53.5313 66.7701 54.3069 68.4585 56.6666C68.8324 57.1838 69.1776 57.7559 69.4987 58.3744C70.7941 60.8721 71.6562 64.1868 72.0709 68.2773C72.1501 69.0615 72.2146 69.8718 72.261 70.7129C72.3422 72.1844 71.2105 73.4481 69.7386 73.5283C69.6891 73.5317 69.6393 73.5337 69.5899 73.5337C68.7402 73.5337 67.981 73.133 67.4911 72.5085V87.1663C67.4911 89.0117 68.9871 90.5077 70.8325 90.5077C72.677 90.5077 74.174 89.0117 74.174 87.1663V68.2776H75.3982H76.0665V85.8805C76.0665 87.2241 77.0586 88.3331 78.3497 88.5222V89.3372C78.3497 89.9834 78.8733 90.5067 79.5192 90.5067C80.1654 90.5067 80.6887 89.9834 80.6887 89.3372V88.5533H92.829V89.3372C92.829 89.9834 93.3526 90.5067 93.9985 90.5067C94.6447 90.5067 95.168 89.9834 95.168 89.3372V88.5222C96.4591 88.3331 97.4515 87.2241 97.4515 85.8805V63.8272C97.4515 62.351 96.2546 61.1541 94.7784 61.1541H93.358V52.8337C93.3573 51.5409 92.3111 50.495 91.019 50.4943H86.2725C86.2207 50.2691 86.1679 50.0456 86.1145 49.8254C84.1721 41.8033 81.4532 37.2965 78.9682 34.748C76.6269 32.3338 74.5111 31.7721 73.8395 31.6669C72.8932 31.3127 70.599 30.6314 66.9338 30.6314C61.9838 30.6314 59.5272 31.8757 59.5272 31.8757L59.5152 31.9375C58.47 32.3893 56.7415 33.5167 54.8833 36.2051C53.3801 38.366 51.7441 41.5247 50.1683 46.2183C48.8357 40.2379 47.0377 36.2489 45.2197 33.5457C42.5572 29.5574 39.7521 28.5019 38.9151 28.3121C38.6725 28.2366 38.4146 28.1958 38.1469 28.1958H25.2367C24.8942 28.1958 24.5678 28.264 24.2684 28.3853C23.3959 28.6349 20.5641 29.5531 17.622 31.9355C15.9219 33.3175 14.1944 35.2134 12.9029 37.7375C11.6088 40.2583 10.7751 43.3939 10.7788 47.1222C10.7788 47.9903 10.8239 48.8915 10.9165 49.8254C10.9382 50.0466 10.9632 50.2698 10.9906 50.4943H9.43187V50.4933ZM91.3525 52.8327V61.1531H82.1636V52.8327C82.1643 52.6642 82.2912 52.5306 82.4526 52.5072C82.6488 52.7829 82.9017 53.0091 83.1954 53.1665C83.5052 53.3322 83.8547 53.4258 84.2179 53.4258C84.3766 53.4258 84.5377 53.4084 84.6991 53.3716C84.8939 53.3275 85.0753 53.2563 85.2437 53.1665C85.5481 53.0034 85.8037 52.7728 85.9958 52.4978H91.0183C91.2028 52.4985 91.3525 52.6482 91.3525 52.8327ZM77.6597 40.0725C79.0023 42.1395 80.4541 45.2707 81.6651 49.9447C81.7205 50.1579 81.7753 50.372 81.8295 50.5916C80.8634 50.8793 80.1594 51.7724 80.1587 52.8327V61.1531H80.0288L79.4901 58.3797L75.4023 37.3399C76.0679 37.944 76.8397 38.8118 77.6597 40.0725ZM11.3702 52.8848C11.3893 52.9813 11.4147 53.0746 11.4434 53.1665C11.7922 54.2875 12.8334 55.043 13.9906 55.0433C14.1613 55.0433 14.3344 55.027 14.5085 54.9929C15.5049 54.7974 16.262 54.072 16.5457 53.1668C16.6129 52.9526 16.6503 52.7281 16.6613 52.4982H17.9525C18.1369 52.4988 18.2866 52.6485 18.2866 52.833V61.1534H9.09773V52.833C9.0984 52.6485 9.2481 52.4988 9.43187 52.4982H11.2987C11.3228 52.6268 11.3448 52.7548 11.3702 52.8848ZM16.3005 49.8244C16.1852 48.8654 16.125 47.9602 16.125 47.1212C16.1284 44.1731 16.7592 41.9433 17.6618 40.1731C18.9739 37.6065 20.9367 35.9555 22.6552 34.9184V47.3016V53.6299V60.6225V61.3275C22.3614 61.2166 22.0447 61.1531 21.7122 61.1531H20.2918V52.8327C20.2908 51.5399 19.2452 50.494 17.9528 50.4933H16.385C16.3513 50.2651 16.3269 50.0459 16.3005 49.8244Z"/>
</mask>
<path d="M9.43187 50.4933C8.13975 50.494 7.09389 51.5399 7.09322 52.8327V61.1531H5.67312C4.19656 61.1531 3 62.35 3 63.8262V85.8795C3 87.2231 3.99206 88.3321 5.28318 88.5212V89.3362C5.28318 89.9824 5.80678 90.5057 6.45267 90.5057C7.0989 90.5057 7.62217 89.9824 7.62217 89.3362V88.5523H19.7625V89.3362C19.7625 89.9824 20.2861 90.5057 20.932 90.5057C21.5782 90.5057 22.1015 89.9824 22.1015 89.3362V88.5212C22.452 88.4698 22.7791 88.3488 23.0718 88.1754C23.1694 88.3765 23.281 88.5687 23.4086 88.7498C24.1561 89.8113 25.3888 90.5067 26.7858 90.5067C29.0673 90.5067 30.9174 88.6572 30.9174 86.3757V72.31C30.4233 71.8219 30.1483 71.1225 30.2325 70.3817C30.4009 68.9031 30.6304 67.5205 30.9174 66.2307V56.2115H32.4662V61.3743C33.0954 59.9502 33.8362 58.7165 34.6886 57.683C35.1861 57.0769 35.6806 56.5968 36.1474 56.2115C37.3249 55.2395 38.3193 54.8913 38.6939 54.7874C39.2432 54.6079 39.8871 54.476 40.6145 54.3904C40.652 54.3857 40.6907 54.3824 40.7288 54.3781V54.336C40.6981 54.3249 40.6673 54.3139 40.6373 54.3022C38.3644 53.4428 36.7408 51.2505 36.7408 48.6806C36.7408 46.7707 37.6387 45.0696 39.0307 43.9672C39.5373 43.5659 40.11 43.2475 40.7292 43.025V36.4591C41.0052 36.8624 41.2898 37.3138 41.5829 37.8338C42.2799 39.0794 43.0033 40.6897 43.6853 42.7463C46.5606 43.1957 48.7696 45.682 48.7696 48.6813C48.7696 50.7827 47.684 52.6332 46.0463 53.7088C46.0848 54.0038 46.1222 54.3035 46.1586 54.6073C46.3902 54.6617 46.6127 54.7209 46.8189 54.7884C46.9953 54.8375 47.3137 54.9438 47.723 55.1429C48.2233 55.3862 48.8608 55.7704 49.5541 56.3739C50.2007 55.5345 50.883 54.9144 51.5229 54.4673C51.8564 54.234 52.1778 54.0463 52.4755 53.9002C52.794 52.6098 53.1177 51.4079 53.4439 50.2915C52.7739 49.2677 52.3806 48.0471 52.3806 46.7346C52.3806 43.6675 54.5131 41.096 57.372 40.407C57.6236 39.9619 57.8682 39.5596 58.1048 39.197L57.8893 40.3057C58.2184 40.2543 58.5529 40.2198 58.8964 40.2198C62.4894 40.2198 65.4118 43.1422 65.4118 46.7349C65.4118 50.3283 62.4894 53.2507 58.8964 53.2507C57.6744 53.2507 56.534 52.9062 55.5553 52.3187L55.3418 53.4177H63.0731C63.1707 53.4177 63.2586 53.4274 63.3348 53.4381C63.4153 53.4311 63.4968 53.4264 63.5797 53.4264C63.7073 53.4264 63.8346 53.4361 63.9589 53.4545C64.7555 53.5313 66.7701 54.3069 68.4585 56.6666C68.8324 57.1838 69.1776 57.7559 69.4987 58.3744C70.7941 60.8721 71.6562 64.1868 72.0709 68.2773C72.1501 69.0615 72.2146 69.8718 72.261 70.7129C72.3422 72.1844 71.2105 73.4481 69.7386 73.5283C69.6891 73.5317 69.6393 73.5337 69.5899 73.5337C68.7402 73.5337 67.981 73.133 67.4911 72.5085V87.1663C67.4911 89.0117 68.9871 90.5077 70.8325 90.5077C72.677 90.5077 74.174 89.0117 74.174 87.1663V68.2776H75.3982H76.0665V85.8805C76.0665 87.2241 77.0586 88.3331 78.3497 88.5222V89.3372C78.3497 89.9834 78.8733 90.5067 79.5192 90.5067C80.1654 90.5067 80.6887 89.9834 80.6887 89.3372V88.5533H92.829V89.3372C92.829 89.9834 93.3526 90.5067 93.9985 90.5067C94.6447 90.5067 95.168 89.9834 95.168 89.3372V88.5222C96.4591 88.3331 97.4515 87.2241 97.4515 85.8805V63.8272C97.4515 62.351 96.2546 61.1541 94.7784 61.1541H93.358V52.8337C93.3573 51.5409 92.3111 50.495 91.019 50.4943H86.2725C86.2207 50.2691 86.1679 50.0456 86.1145 49.8254C84.1721 41.8033 81.4532 37.2965 78.9682 34.748C76.6269 32.3338 74.5111 31.7721 73.8395 31.6669C72.8932 31.3127 70.599 30.6314 66.9338 30.6314C61.9838 30.6314 59.5272 31.8757 59.5272 31.8757L59.5152 31.9375C58.47 32.3893 56.7415 33.5167 54.8833 36.2051C53.3801 38.366 51.7441 41.5247 50.1683 46.2183C48.8357 40.2379 47.0377 36.2489 45.2197 33.5457C42.5572 29.5574 39.7521 28.5019 38.9151 28.3121C38.6725 28.2366 38.4146 28.1958 38.1469 28.1958H25.2367C24.8942 28.1958 24.5678 28.264 24.2684 28.3853C23.3959 28.6349 20.5641 29.5531 17.622 31.9355C15.9219 33.3175 14.1944 35.2134 12.9029 37.7375C11.6088 40.2583 10.7751 43.3939 10.7788 47.1222C10.7788 47.9903 10.8239 48.8915 10.9165 49.8254C10.9382 50.0466 10.9632 50.2698 10.9906 50.4943H9.43187V50.4933ZM91.3525 52.8327V61.1531H82.1636V52.8327C82.1643 52.6642 82.2912 52.5306 82.4526 52.5072C82.6488 52.7829 82.9017 53.0091 83.1954 53.1665C83.5052 53.3322 83.8547 53.4258 84.2179 53.4258C84.3766 53.4258 84.5377 53.4084 84.6991 53.3716C84.8939 53.3275 85.0753 53.2563 85.2437 53.1665C85.5481 53.0034 85.8037 52.7728 85.9958 52.4978H91.0183C91.2028 52.4985 91.3525 52.6482 91.3525 52.8327ZM77.6597 40.0725C79.0023 42.1395 80.4541 45.2707 81.6651 49.9447C81.7205 50.1579 81.7753 50.372 81.8295 50.5916C80.8634 50.8793 80.1594 51.7724 80.1587 52.8327V61.1531H80.0288L79.4901 58.3797L75.4023 37.3399C76.0679 37.944 76.8397 38.8118 77.6597 40.0725ZM11.3702 52.8848C11.3893 52.9813 11.4147 53.0746 11.4434 53.1665C11.7922 54.2875 12.8334 55.043 13.9906 55.0433C14.1613 55.0433 14.3344 55.027 14.5085 54.9929C15.5049 54.7974 16.262 54.072 16.5457 53.1668C16.6129 52.9526 16.6503 52.7281 16.6613 52.4982H17.9525C18.1369 52.4988 18.2866 52.6485 18.2866 52.833V61.1534H9.09773V52.833C9.0984 52.6485 9.2481 52.4988 9.43187 52.4982H11.2987C11.3228 52.6268 11.3448 52.7548 11.3702 52.8848ZM16.3005 49.8244C16.1852 48.8654 16.125 47.9602 16.125 47.1212C16.1284 44.1731 16.7592 41.9433 17.6618 40.1731C18.9739 37.6065 20.9367 35.9555 22.6552 34.9184V47.3016V53.6299V60.6225V61.3275C22.3614 61.2166 22.0447 61.1531 21.7122 61.1531H20.2918V52.8327C20.2908 51.5399 19.2452 50.494 17.9528 50.4933H16.385C16.3513 50.2651 16.3269 50.0459 16.3005 49.8244Z" stroke="black" stroke-width="4" mask="url(#path-1-outside-1_2455_5087)"/>
<path d="M31.6921 9.92139C36.3964 9.9216 40.2097 13.7356 40.2097 18.4399C40.2095 23.1441 36.3963 26.9573 31.6921 26.9575C26.9878 26.9575 23.1738 23.1442 23.1736 18.4399C23.1736 13.7355 26.9877 9.92139 31.6921 9.92139Z" stroke="black" stroke-width="2"/>
<path d="M59.1277 20.4617C60.1319 16.1507 64.4408 13.4702 68.7519 14.4742C73.0628 15.4783 75.7434 19.7864 74.7396 24.0973C73.7357 28.4084 69.4273 31.0898 65.1162 30.086C60.805 29.0821 58.1238 24.7729 59.1277 20.4617Z" stroke="black" stroke-width="2"/>
<path d="M58.8962 40.3853C62.4021 40.3854 65.2439 43.227 65.2439 46.7329C65.2438 50.238 62.4021 53.0805 58.8962 53.0806C57.6906 53.0806 56.5646 52.7414 55.6052 52.1577L55.4158 52.0376C54.6203 51.5148 53.9513 50.8186 53.4597 50.0024L53.2605 49.646C52.809 48.7739 52.5486 47.7841 52.5486 46.7329C52.5486 43.9786 54.3052 41.6435 56.7527 40.7642L56.9705 40.689C57.191 40.6172 57.4201 40.5553 57.657 40.5083L57.9597 40.4556C58.2647 40.4099 58.5773 40.3853 58.8962 40.3853Z" stroke="black"/>
<path d="M63.0723 53.5854C63.1692 53.5854 63.2614 53.5977 63.332 53.6079C63.5263 53.5889 63.7278 53.5896 63.9336 53.6196L63.9326 53.6216C64.5298 53.6899 66.5489 54.2882 68.3203 56.7612L68.5879 57.1479C68.8534 57.5479 69.1116 57.9883 69.3613 58.4702L69.5723 58.8921C70.6131 61.0545 71.4691 64.0435 71.8975 68.2261L72.0068 69.4399C72.0396 69.8556 72.0685 70.2824 72.0928 70.7212L72.0938 70.978C72.0347 72.2464 71.0243 73.2887 69.7295 73.3608H69.7285C69.6796 73.3635 69.6326 73.3638 69.5898 73.3638C68.2689 73.3638 67.1645 72.3309 67.0908 70.9976V70.9966C67.0776 70.754 67.0625 70.5173 67.0459 70.2847L66.9922 69.5972C66.974 69.3778 66.9551 69.1624 66.9346 68.9517L66.8691 68.3325C66.6643 66.5063 66.3731 65.0075 66.042 63.7866L65.8984 63.2808C65.6883 62.578 65.4656 61.9763 65.2432 61.4644V87.8335C65.2432 89.3029 64.2445 90.5354 62.8906 90.897L62.6152 90.9575C62.4446 90.9868 62.2621 91.0063 62.0703 91.0063C60.3179 91.0063 58.8975 89.5859 58.8975 87.8335V74.6343H58.8945V87.8335C58.8945 89.5859 57.474 91.0063 55.7217 91.0063C53.9693 91.0063 52.5488 89.5859 52.5488 87.8335V72.4946L53.0342 72.481C53.1051 72.4789 53.1306 72.4781 53.1543 72.4751L53.1611 72.4741L53.3467 72.4438C54.1955 72.2581 54.8022 71.4942 54.792 70.6265L54.7803 70.439C54.6987 69.7222 54.603 69.0291 54.4932 68.3579V68.3569C54.1969 66.5421 53.7966 64.8995 53.2998 63.4282L53.0811 62.8081C52.9247 62.3844 52.7624 61.9753 52.5908 61.5864L52.5488 61.4907V61.3647L52.5312 61.3979L52.0986 60.563C51.9961 60.3651 51.8915 60.1715 51.7842 59.9829L51.4551 59.4312C51.3191 59.2136 51.1782 59.0019 51.0342 58.7964V58.7954C50.8375 58.5155 50.6405 58.2494 50.4365 58.0024L50.4355 58.0015C50.1867 57.6984 49.9387 57.4311 49.6934 57.188L49.3818 56.8794L49.6465 56.5298C50.1962 55.8064 50.7634 55.2547 51.3018 54.8374V54.8364L51.6582 54.5767C51.7752 54.4961 51.89 54.4215 52.0029 54.353L52.3164 54.1733C53.0113 53.7994 53.5783 53.6538 53.8584 53.6216V53.6206C53.8613 53.6202 53.8643 53.62 53.8672 53.6196C53.8718 53.6191 53.8764 53.6181 53.8809 53.6177L53.9365 53.6128C53.9725 53.6087 54.0082 53.6045 54.0439 53.6021L54.0586 53.6001L54.0596 53.6011C54.1943 53.5927 54.3263 53.5967 54.4551 53.6089C54.5265 53.5986 54.6198 53.5855 54.7188 53.5854H63.0723Z" stroke="black"/>
<path d="M42.7549 42.8389C43.0841 42.8389 43.4046 42.8683 43.7158 42.9209L44.0234 42.9805L44.2666 43.04C46.7615 43.7067 48.6006 45.9789 48.6006 48.6855C48.6005 50.4859 47.7828 52.0907 46.5059 53.1611L46.2441 53.3682C45.2712 54.0944 44.066 54.5305 42.7549 54.5303V54.5312C42.068 54.5312 41.4093 54.411 40.7979 54.1934L40.5381 54.0938C38.4105 53.2206 36.9082 51.1298 36.9082 48.6846C36.9083 46.7722 37.8305 45.0806 39.2461 44.0156L39.5479 43.8018C39.8573 43.597 40.1887 43.42 40.5391 43.2764L40.7979 43.1768C41.4094 42.9591 42.0679 42.8389 42.7549 42.8389Z" stroke="black"/>
<path d="M42.7546 54.4434C44.3994 54.4434 45.5547 54.6154 46.3689 54.833L46.7556 54.9463H46.7566C46.976 55.0059 47.3435 55.1317 47.8035 55.3701L48.1824 55.5811C48.5787 55.8172 49.0241 56.1305 49.4919 56.543L49.7478 56.7783C49.8336 56.8597 49.9202 56.9438 50.0066 57.0312V57.0322L50.3474 57.3916C50.4613 57.5176 50.5754 57.6503 50.6902 57.79L50.9402 58.1045C51.1068 58.3207 51.2731 58.5499 51.4373 58.793L51.6824 59.168L52.03 59.7441L52.3279 60.2891C52.4261 60.4766 52.5233 60.6697 52.6189 60.8682L52.8542 61.376C53.0863 61.8963 53.3093 62.4565 53.5203 63.0586L53.7693 63.8105L53.9177 64.2969C54.2589 65.453 54.5591 66.7451 54.8005 68.1943L54.9656 69.2695C55.0172 69.6368 55.065 70.0135 55.1091 70.4004L55.1238 70.623C55.1371 71.7213 54.3175 72.6713 53.2048 72.8018L53.2058 72.8027H53.2029C53.2016 72.8029 53.2003 72.8036 53.199 72.8037L53.198 72.8027C53.1644 72.8067 53.1354 72.8098 53.1169 72.8105C53.0905 72.8117 53.0888 72.811 53.0798 72.8115H53.0789C53.0648 72.8124 53.0635 72.8134 53.0359 72.8154C53.0157 72.8169 52.985 72.8184 52.9509 72.8184C52.6882 72.8183 52.4382 72.7688 52.2087 72.6855L52.2068 72.6846C51.5092 72.4286 50.9638 71.8218 50.8191 71.0508L50.7957 70.8945C50.7195 70.2286 50.6306 69.6036 50.533 69.0088V69.0078C50.4616 68.5715 50.3836 68.1541 50.3025 67.7549C50.396 68.4409 50.4857 69.1294 50.5662 69.8125L50.6951 70.9658V70.9668L50.8328 72.4219L50.9128 73.4336C50.9828 74.4314 51.0232 75.3826 51.0232 76.251C51.023 76.5718 50.8768 76.8412 50.6931 77.0508C50.511 77.2586 50.2683 77.4372 50.0027 77.5908C49.5558 77.8493 48.9794 78.0723 48.3503 78.2666V88.3359C48.3502 89.8114 47.1539 91.0076 45.6785 91.0078C44.2028 91.0078 43.0067 89.8115 43.0066 88.3359V79.1357C42.9208 79.1377 42.8368 79.1406 42.7546 79.1406C42.6726 79.1406 42.5884 79.1377 42.5027 79.1357V88.3359C42.5026 89.8115 41.3064 91.0077 39.8308 91.0078C39.2862 91.0078 38.7803 90.8435 38.3591 90.5645L38.1843 90.4375C37.5628 89.9499 37.159 89.1914 37.1589 88.3359V78.2676C36.5297 78.0733 35.9536 77.8493 35.5066 77.5908C35.2409 77.4371 34.9973 77.2586 34.8152 77.0508C34.6316 76.8413 34.4862 76.5717 34.4861 76.251C34.4861 73.8275 34.7955 70.7536 35.2068 67.7393C35.0574 68.4715 34.9221 69.2656 34.8074 70.127L34.7126 70.8945C34.586 72.0024 33.6465 72.8192 32.5574 72.8193C32.525 72.8193 32.4958 72.8177 32.4773 72.8164C32.4527 72.8147 32.4495 72.8141 32.4382 72.8135V72.8125C32.4255 72.8119 32.4227 72.8126 32.3962 72.8115C32.3756 72.8107 32.3458 72.8093 32.3123 72.8057H32.3093C31.325 72.6919 30.584 71.9377 30.4246 71.0166L30.4041 70.875C30.3864 70.729 30.3801 70.5704 30.3992 70.4023V70.3994L30.4109 70.3105C30.4145 70.2831 30.4178 70.2594 30.4207 70.2354C30.7618 67.3341 31.3171 64.9707 31.9939 63.0439L32.1501 62.6143C32.8331 60.7834 33.6257 59.3651 34.4412 58.2725L34.8181 57.791C35.5758 56.8676 36.3312 56.2319 36.9871 55.7959L37.2791 55.6104C37.9223 55.2211 38.443 55.0334 38.7312 54.9531L39.0359 54.8604C39.3591 54.7701 39.7395 54.6871 40.1814 54.6191V54.6201C40.3375 54.5959 40.5013 54.5743 40.6716 54.5547L41.1316 54.5078C41.6108 54.4671 42.1477 54.4434 42.7546 54.4434Z" stroke="black"/>
</svg>
