<svg width="33" height="32" viewBox="0 0 33 32" fill="none" xmlns="http://www.w3.org/2000/svg">
<g clip-path="url(#clip0_2455_4743)">
<path d="M1.17782 11.3073H2.67782H12.4585V11.362C12.5311 11.3587 12.6031 11.3513 12.6771 11.3513C14.7132 11.3513 16.4271 12.7167 16.9618 14.5813L17.1371 11.308H23.1278L22.8211 14.9993L25.8825 11.308H32.7905L28.9865 15.3093L32.8445 20.0167V19.958V17.1667V9.33333V6H0.844482V11.3073H1.17782Z" fill="white"/>
<path d="M6.9492 14.3516L6.7312 16.8869C6.7312 16.8869 8.69853 16.9302 9.15787 16.8869C9.61653 16.8436 10.5785 16.4936 10.5785 15.4882C10.5785 14.4829 9.15787 14.3516 9.15787 14.3516H6.9492Z" fill="white"/>
<path d="M25.9258 20.2686L22.7605 15.7266L22.3845 20.2686H16.6565L16.8051 17.4939C16.1398 19.1206 14.5431 20.2686 12.6771 20.2686C12.4771 20.2686 12.2811 20.2512 12.0878 20.2252H2.67782V20.2686H0.844482V25.9979H32.8445V23.3312V20.2686H25.9258Z" fill="white"/>
</g>
<defs>
<clipPath id="clip0_2455_4743">
<rect width="32" height="32" fill="white" transform="translate(0.844482)"/>
</clipPath>
</defs>
</svg>
