<svg width="30" height="30" viewBox="0 0 30 30" fill="none" xmlns="http://www.w3.org/2000/svg">
<g clip-path="url(#clip0_2455_2409)">
<path d="M11.25 25.3125C11.25 25.6833 11.14 26.0459 10.934 26.3542C10.728 26.6625 10.4351 26.9029 10.0925 27.0448C9.74992 27.1867 9.37292 27.2238 9.00921 27.1515C8.64549 27.0791 8.3114 26.9005 8.04918 26.6383C7.78695 26.3761 7.60837 26.042 7.53603 25.6783C7.46368 25.3146 7.50081 24.9376 7.64273 24.595C7.78464 24.2524 8.02496 23.9595 8.33331 23.7535C8.64165 23.5475 9.00416 23.4375 9.375 23.4375C9.87228 23.4375 10.3492 23.635 10.7008 23.9867C11.0525 24.3383 11.25 24.8152 11.25 25.3125ZM21.5625 23.4375C21.1917 23.4375 20.8291 23.5475 20.5208 23.7535C20.2125 23.9595 19.9721 24.2524 19.8302 24.595C19.6883 24.9376 19.6512 25.3146 19.7235 25.6783C19.7959 26.042 19.9745 26.3761 20.2367 26.6383C20.4989 26.9005 20.833 27.0791 21.1967 27.1515C21.5604 27.2238 21.9374 27.1867 22.28 27.0448C22.6226 26.9029 22.9155 26.6625 23.1215 26.3542C23.3275 26.0459 23.4375 25.6833 23.4375 25.3125C23.4375 24.8152 23.24 24.3383 22.8883 23.9867C22.5367 23.635 22.0598 23.4375 21.5625 23.4375ZM26.7305 7.875C26.6425 7.75923 26.5292 7.66521 26.3991 7.60019C26.2691 7.53518 26.1259 7.5009 25.9805 7.5H5.66016L4.71094 4.17187C4.59712 3.78088 4.35985 3.4372 4.03457 3.19218C3.7093 2.94717 3.31348 2.81398 2.90625 2.8125H0.9375C0.68886 2.8125 0.450403 2.91127 0.274587 3.08709C0.0987721 3.2629 0 3.50136 0 3.75C0 3.99864 0.0987721 4.2371 0.274587 4.41291C0.450403 4.58873 0.68886 4.6875 0.9375 4.6875H2.90625L4.05469 8.68359V8.70703L7.14844 19.5234C7.31832 20.1104 7.67401 20.6265 8.16211 20.9941C8.65021 21.3618 9.24439 21.5612 9.85547 21.5625H21.082C21.6931 21.5612 22.2873 21.3618 22.7754 20.9941C23.2635 20.6265 23.6192 20.1104 23.7891 19.5234L26.8828 8.69531C26.9225 8.5561 26.9294 8.40959 26.9029 8.26727C26.8765 8.12496 26.8175 7.99069 26.7305 7.875Z" fill="black"/>
</g>
<defs>
<clipPath id="clip0_2455_2409">
<rect width="30" height="30" fill="white"/>
</clipPath>
</defs>
</svg>
