<svg width="98" height="99" viewBox="0 0 98 99" fill="none" xmlns="http://www.w3.org/2000/svg">
<path d="M42.5381 80.6505L38.2506 76.8408C36.1068 74.9114 34.4531 72.5226 33.4118 69.8276L27.2562 52.8308C26.7356 51.3914 27.4093 49.7989 28.7875 49.1558C29.5225 48.8189 30.2575 48.6658 31.0231 48.6658C32.9525 48.6658 34.8206 49.7407 35.77 51.5751L41.405 62.9064C43.3037 61.4976 44.4062 59.262 44.4062 56.9345V20.8276C44.4062 18.2858 46.4581 16.2339 49 16.2339C51.5418 16.2339 53.5937 18.2858 53.5937 20.8276V45.3276C53.5937 42.7858 55.6456 40.7339 58.1875 40.7339C60.7293 40.7339 62.7812 42.7858 62.7812 45.3276V46.8589C62.7812 44.317 64.8331 42.2651 67.375 42.2651C69.9168 42.2651 71.9687 44.317 71.9687 46.8589V49.9214C71.9687 47.3795 74.0206 45.3276 76.5625 45.3276C79.1043 45.3276 81.1562 47.3795 81.1562 49.9214V74.697C81.1562 76.7642 80.5345 78.7793 79.3983 80.4882" stroke="#BF252D" stroke-width="2" stroke-miterlimit="10" stroke-linecap="round" stroke-linejoin="round"/>
<path d="M41.3438 94.3276V85.1401H81.1562V94.3276" stroke="#BF252D" stroke-width="2" stroke-miterlimit="10" stroke-linecap="round" stroke-linejoin="round"/>
<path d="M32.0858 17.8906C32.1317 18.3499 32.1562 18.8216 32.1562 19.2963C32.1562 26.8882 26.0037 33.0408 18.4117 33.0408C10.8198 33.0408 4.66724 26.8882 4.66724 19.2963C4.66724 11.7043 10.8229 5.55176 18.4117 5.55176C20.8403 5.55176 23.1249 6.1857 25.1064 7.29126" stroke="#BF252D" stroke-width="2" stroke-miterlimit="10" stroke-linecap="round" stroke-linejoin="round"/>
<path d="M31.5836 9.625L18.4118 22.7968L12.0663 16.4513" stroke="#BF252D" stroke-width="2" stroke-miterlimit="10" stroke-linecap="round" stroke-linejoin="round"/>
<path d="M79.625 33.0776C87.2362 33.0776 93.4062 26.9076 93.4062 19.2964C93.4062 11.6852 87.2362 5.51514 79.625 5.51514C72.0138 5.51514 65.8438 11.6852 65.8438 19.2964C65.8438 26.9076 72.0138 33.0776 79.625 33.0776Z" stroke="#BF252D" stroke-width="2" stroke-miterlimit="10"/>
<path d="M84.2188 23.8901L75.0312 14.7026" stroke="#BF252D" stroke-width="2" stroke-miterlimit="10" stroke-linecap="round" stroke-linejoin="round"/>
<path d="M84.2188 14.7026L75.0312 23.8901" stroke="#BF252D" stroke-width="2" stroke-miterlimit="10" stroke-linecap="round" stroke-linejoin="round"/>
<path d="M42.5381 80.6505L38.2506 76.8408C36.1068 74.9114 34.4531 72.5226 33.4118 69.8276L27.2562 52.8308C26.7356 51.3914 27.4093 49.7989 28.7875 49.1558C29.5225 48.8189 30.2575 48.6658 31.0231 48.6658C32.9525 48.6658 34.8206 49.7407 35.77 51.5751L41.405 62.9064C43.3037 61.4976 44.4062 59.262 44.4062 56.9345V20.8276C44.4062 18.2858 46.4581 16.2339 49 16.2339C51.5418 16.2339 53.5937 18.2858 53.5937 20.8276V45.3276C53.5937 42.7858 55.6456 40.7339 58.1875 40.7339C60.7293 40.7339 62.7812 42.7858 62.7812 45.3276V46.8589C62.7812 44.317 64.8331 42.2651 67.375 42.2651C69.9168 42.2651 71.9687 44.317 71.9687 46.8589V49.9214C71.9687 47.3795 74.0206 45.3276 76.5625 45.3276C79.1043 45.3276 81.1562 47.3795 81.1562 49.9214V74.697C81.1562 76.7642 80.5345 78.7793 79.3983 80.4882" stroke="#BF252D" stroke-width="2" stroke-miterlimit="10" stroke-linecap="round" stroke-linejoin="round"/>
<path d="M41.3438 94.3276V85.1401H81.1562V94.3276" stroke="#BF252D" stroke-width="2" stroke-miterlimit="10" stroke-linecap="round" stroke-linejoin="round"/>
<path d="M32.0858 17.8906C32.1317 18.3499 32.1562 18.8216 32.1562 19.2963C32.1562 26.8882 26.0037 33.0408 18.4117 33.0408C10.8198 33.0408 4.66724 26.8882 4.66724 19.2963C4.66724 11.7043 10.8229 5.55176 18.4117 5.55176C20.8403 5.55176 23.1249 6.1857 25.1064 7.29126" stroke="#BF252D" stroke-width="2" stroke-miterlimit="10" stroke-linecap="round" stroke-linejoin="round"/>
<path d="M31.5836 9.625L18.4118 22.7968L12.0663 16.4513" stroke="#BF252D" stroke-width="2" stroke-miterlimit="10" stroke-linecap="round" stroke-linejoin="round"/>
<path d="M79.625 33.0776C87.2362 33.0776 93.4062 26.9076 93.4062 19.2964C93.4062 11.6852 87.2362 5.51514 79.625 5.51514C72.0138 5.51514 65.8438 11.6852 65.8438 19.2964C65.8438 26.9076 72.0138 33.0776 79.625 33.0776Z" stroke="#BF252D" stroke-width="2" stroke-miterlimit="10" stroke-linecap="round" stroke-linejoin="round"/>
<path d="M84.2188 23.8901L75.0312 14.7026" stroke="#BF252D" stroke-width="2" stroke-miterlimit="10" stroke-linecap="round" stroke-linejoin="round"/>
<path d="M84.2188 14.7026L75.0312 23.8901" stroke="#BF252D" stroke-width="2" stroke-miterlimit="10" stroke-linecap="round" stroke-linejoin="round"/>
</svg>
