<svg width="125" height="40" viewBox="0 0 125 40" fill="none" xmlns="http://www.w3.org/2000/svg">
<g clip-path="url(#clip0_2455_2386)">
<path d="M0 0.5C18.546 1.06844 37.0551 2.64316 55.4614 4.98132C58.182 5.35476 60.9136 5.62335 63.6342 5.99679C64.7408 6.15316 65.8695 6.18627 66.9485 6.50085C64.182 6.57443 61.4136 6.45854 58.6471 6.50269C55.4577 6.53212 52.2665 6.47693 49.079 6.59099C36.75 6.80071 24.4265 7.42986 12.1397 8.45821C11.7298 8.43613 11.5643 8.85373 11.4099 9.15726C10.0643 12.2607 8.94853 15.458 7.83272 18.6497C7.47243 19.6597 7.19853 20.7009 6.77941 21.6906C6.49632 21.1442 6.2739 20.5721 6.07904 19.989C4.24632 14.9742 2.56066 9.90415 1.06066 4.77896C0.681985 3.51514 0.408088 2.22373 0 0.969104L0 0.5Z" fill="#BF252D"/>
<path d="M118.221 18.1348C118.541 18.7731 118.787 19.4427 119.017 20.1179C120.802 24.9947 122.43 29.9267 123.897 34.9066C124.298 36.2164 124.572 37.5593 125 38.8618V39.3272C106.184 38.7569 87.4063 37.1399 68.7354 34.7466C66.228 34.4117 63.7115 34.1432 61.2041 33.812C60.149 33.6704 59.0754 33.6281 58.0479 33.33C59.7758 33.2491 61.5056 33.354 63.2354 33.3209C79.2206 33.4147 95.2059 32.7892 111.14 31.5162C111.813 31.4573 112.498 31.4665 113.158 31.312C113.43 31.0802 113.557 30.7325 113.706 30.4198C115.004 27.3439 116.131 24.2 117.213 21.0432C117.552 20.0737 117.829 19.084 118.221 18.1348Z" fill="#BF252D"/>
<path d="M49.8068 15.0222C51.3141 14.3433 53.02 14.4188 54.6211 14.645C54.6266 15.5648 54.5715 16.4847 54.5366 17.4045C53.6193 17.2628 52.634 16.9482 51.7296 17.3014C51.2627 17.4597 51.1046 18.1992 51.5457 18.4751C52.1965 18.9222 52.9906 19.084 53.6818 19.4556C54.4391 19.8291 55.1046 20.484 55.3086 21.3265C55.5696 22.4524 55.3601 23.7199 54.6174 24.6268C54.0494 25.3388 53.2296 25.8171 52.3564 26.0562C50.9759 26.4554 49.5108 26.3873 48.1138 26.1077C48.0972 25.1585 48.1377 24.2074 48.2002 23.2618C49.0899 23.4274 49.9998 23.6665 50.9097 23.5157C51.3582 23.455 51.7755 23.0705 51.7296 22.5904C51.7351 22.204 51.3417 22.0293 51.0476 21.8931C50.1707 21.5179 49.1616 21.3265 48.4759 20.6109C47.6064 19.704 47.4943 18.2893 47.8582 17.134C48.1542 16.183 48.9005 15.4158 49.8068 15.0222Z" fill="black"/>
<path d="M104.142 14.9465C105.61 14.3579 107.243 14.4149 108.779 14.654C108.781 15.5702 108.765 16.4881 108.68 17.4024C107.827 17.2571 106.941 17.0124 106.079 17.2258C105.621 17.3307 105.29 17.8513 105.513 18.2983C105.829 18.6534 106.298 18.8006 106.722 18.9772C107.557 19.2954 108.447 19.6394 109.009 20.3697C109.724 21.2969 109.722 22.6012 109.34 23.6645C108.961 24.7297 108.028 25.5115 106.991 25.8997C105.48 26.4699 103.807 26.4295 102.25 26.091C102.283 25.1215 102.316 24.1502 102.371 23.1825C103.336 23.4769 104.425 23.7749 105.404 23.3959C105.917 23.212 106.127 22.4099 105.614 22.1064C104.711 21.5545 103.566 21.4698 102.768 20.7303C101.853 19.9448 101.721 18.6166 101.923 17.4981C102.14 16.3244 103.051 15.3752 104.142 14.9465Z" fill="black"/>
<path d="M18.2794 14.7407C19.636 14.7186 20.9908 14.7205 22.3474 14.7389C23.7095 18.5138 25.0349 22.3016 26.4375 26.0617C25.1783 26.0857 23.9191 26.1133 22.6599 26.047C22.5036 25.4712 22.3364 24.8954 22.0661 24.3619C20.7702 24.3417 19.4742 24.3546 18.1783 24.3656C17.9742 24.923 17.7812 25.4823 17.6029 26.0489C16.4889 26.1077 15.3731 26.093 14.2573 26.0654C14.557 25.0316 14.9522 24.0308 15.3125 23.0172C16.2978 20.2559 17.3014 17.502 18.2794 14.7407ZM20.1121 18.3445C19.7849 19.5716 19.3088 20.7526 18.9356 21.9667C19.7316 21.9539 20.5257 21.9539 21.3217 21.9667C20.9448 20.7508 20.5073 19.555 20.1121 18.3445Z" fill="black"/>
<path d="M28.8697 14.7128C29.98 14.7349 31.0884 14.7367 32.1987 14.7109C32.2557 18.5006 32.23 22.292 32.2116 26.0835C31.0921 26.0835 29.9726 26.0945 28.8531 26.0724C28.8458 22.2865 28.8127 18.4987 28.8697 14.7128Z" fill="black"/>
<path d="M35.886 14.7164C37.4632 14.6521 39.0441 14.5969 40.6231 14.6281C41.7775 14.6741 43.0165 14.8379 43.9522 15.5756C45.5147 16.7934 45.4467 19.5123 43.8566 20.6787C43.5239 20.9325 43.1525 21.1257 42.7904 21.3299C43.6948 22.9285 44.7114 24.4609 45.6121 26.0632C44.2647 26.0945 42.9154 26.1 41.568 26.0596C41.1728 25.2906 40.7665 24.5272 40.3474 23.7711C40.0018 23.153 39.7316 22.4833 39.2518 21.9535C39.2426 23.324 39.3088 24.6964 39.2114 26.0669C38.1029 26.0908 36.9926 26.0982 35.8823 26.0651C35.8989 22.2828 35.8952 18.4987 35.886 14.7164ZM39.2095 17.2478C39.2353 18.083 39.2353 18.92 39.2389 19.757C39.7849 19.7349 40.3786 19.8104 40.875 19.5252C41.5606 19.1444 41.7353 18.0186 41.0661 17.5366C40.5331 17.1356 39.8327 17.2183 39.2095 17.2478Z" fill="black"/>
<path d="M58.2464 14.7129C59.3585 14.735 60.4707 14.735 61.5828 14.7129C61.6324 16.0944 61.5938 17.4778 61.6122 18.8594C63.0001 18.8355 64.3898 18.8336 65.7795 18.8594C65.8034 17.4778 65.763 16.0944 65.8126 14.7129C66.9229 14.735 68.035 14.735 69.1453 14.7129C69.2005 18.5025 69.1766 22.294 69.1582 26.0836C68.0369 26.0854 66.9174 26.0873 65.7961 26.0836C65.7813 24.6542 65.7869 23.2267 65.7924 21.7973C64.3953 21.7678 62.9964 21.766 61.5994 21.7991C61.6086 23.2267 61.6141 24.6542 61.5957 26.0836C60.4744 26.0836 59.3549 26.0873 58.2336 26.0836C58.217 22.294 58.1913 18.5025 58.2464 14.7129Z" fill="black"/>
<path d="M72.8381 14.7127C75.2867 14.7347 77.7352 14.7403 80.1856 14.709C80.2297 15.6012 80.2297 16.4934 80.1764 17.3856C78.8602 17.3544 77.544 17.3599 76.2279 17.3838C76.2168 17.9357 76.2205 18.4894 76.2462 19.0431C77.4944 19.01 78.7444 19.0137 79.9944 19.0395C80.0238 19.8967 80.0238 20.7558 79.9687 21.6112C78.7223 21.5763 77.476 21.5818 76.2315 21.6094C76.2168 22.1944 76.2168 22.7794 76.2297 23.3662C77.544 23.3938 78.8602 23.3957 80.1745 23.3644C80.2297 24.2695 80.226 25.1746 80.1929 26.0815C77.7389 26.0797 75.2867 26.1073 72.8345 26.065C72.8584 22.2809 72.8492 18.4968 72.8381 14.7127Z" fill="black"/>
<path d="M83.6951 14.7185C84.8256 14.7314 85.958 14.7351 87.0921 14.7148C87.0995 17.5037 87.0333 20.2963 87.1271 23.0851C88.2484 23.052 89.3716 23.0539 90.4947 23.0814C90.5241 24.0804 90.5241 25.0811 90.4929 26.08C88.2263 26.0764 85.958 26.1168 83.6914 26.0543C83.73 22.2757 83.7263 18.4953 83.6951 14.7185Z" fill="black"/>
<path d="M93.0498 14.7108C94.1546 14.7347 95.2612 14.7384 96.366 14.709C96.4248 17.4979 96.3991 20.2904 96.3789 23.0811C97.5278 23.0535 98.6785 23.0535 99.8292 23.0811C99.844 24.0819 99.8458 25.0826 99.8292 26.0834C97.5664 26.0779 95.3035 26.1036 93.0425 26.0668C93.0572 22.2809 93.0425 18.4968 93.0498 14.7108Z" fill="black"/>
</g>
<defs>
<clipPath id="clip0_2455_2386">
<rect width="125" height="39" fill="white" transform="translate(0 0.5)"/>
</clipPath>
</defs>
</svg>
