<svg width="100" height="101" viewBox="0 0 100 101" fill="none" xmlns="http://www.w3.org/2000/svg">
<path d="M90.6071 31.0565C90.032 29.5429 88.9247 28.2908 87.4928 27.5348C86.0608 26.7789 84.4024 26.5709 82.8281 26.9498L78.3092 24.1936C77.4682 23.6842 76.5238 23.3699 75.5453 23.2736C74.5668 23.1773 73.5792 23.3015 72.6551 23.6371L56.1283 29.6509L42.556 10.4756C42.3898 10.2407 42.151 10.067 41.8764 9.98117C41.6017 9.89532 41.3065 9.90209 41.0361 10.0004L33.6469 12.6923C33.4848 12.751 33.3358 12.841 33.2085 12.9572C33.0811 13.0735 32.978 13.2137 32.9048 13.3698C32.8317 13.526 32.79 13.695 32.7822 13.8672C32.7745 14.0394 32.8007 14.2115 32.8594 14.3736L40.4823 35.3431L24.05 41.3214L15.2263 31.4503C15.0519 31.2559 14.8234 31.118 14.5702 31.0542C14.317 30.9904 14.0505 31.0035 13.8048 31.092L8.86598 32.8874C8.70386 32.9461 8.55487 33.0361 8.42755 33.1524C8.30022 33.2686 8.19705 33.4088 8.12392 33.5649C8.05079 33.7211 8.00913 33.8901 8.00134 34.0623C7.99355 34.2345 8.01977 34.4066 8.0785 34.5687L15.2617 54.2992C15.3538 54.5524 15.5217 54.7711 15.7424 54.9256C15.9631 55.0801 16.226 55.1629 16.4954 55.1628H16.5112L44.3239 54.8216C44.4717 54.8193 44.6181 54.7922 44.757 54.7415L47.2205 53.8425L54.4024 73.5769C54.4611 73.7392 54.5511 73.8883 54.6675 74.0157C54.7838 74.1432 54.9241 74.2464 55.0804 74.3195C55.2367 74.3927 55.4059 74.4343 55.5783 74.442C55.7506 74.4497 55.9228 74.4233 56.085 74.3644L63.4848 71.6699C63.7553 71.5715 63.9861 71.3869 64.1414 71.1445C64.2968 70.9022 64.3681 70.6154 64.3444 70.3285L62.507 48.2789L86.6828 39.4748C87.4934 39.1796 88.2378 38.7276 88.8735 38.1445C89.5092 37.5614 90.0237 36.8587 90.3876 36.0766C90.7515 35.2945 90.9576 34.4483 90.9941 33.5865C91.0307 32.7246 90.8969 31.864 90.6006 31.0539L90.6071 31.0565ZM35.777 14.7096L40.9928 12.8105L53.5729 30.5814L42.9524 34.4453L35.777 14.7096ZM14.5923 44.7667L10.9961 34.9047L13.8626 33.8626L21.3962 42.2887L14.5923 44.7667ZM56.421 71.4507L47.4424 46.7761L59.3938 42.4252L61.646 69.541L56.421 71.4507ZM85.7917 37.0126L62.2891 45.5712L61.8678 40.5011C61.8513 40.2999 61.7886 40.1053 61.6845 39.9323C61.5805 39.7593 61.438 39.6126 61.268 39.5036C61.098 39.3952 60.9054 39.3269 60.705 39.3042C60.5047 39.2815 60.3017 39.3048 60.1117 39.3724L45.3122 44.7536C45.1499 44.8122 45.0008 44.9023 44.8734 45.0186C44.7459 45.1349 44.6427 45.2753 44.5695 45.4316C44.4964 45.5878 44.4548 45.757 44.4471 45.9294C44.4394 46.1018 44.4658 46.274 44.5247 46.4361L46.3202 51.3684L44.064 52.1914L17.4076 52.5182L15.4861 47.2328L73.5475 26.1019C74.1029 25.8995 74.6965 25.8242 75.2848 25.8814C75.873 25.9386 76.441 26.127 76.9469 26.4327L78.2042 27.2005L74.3508 28.6022L75.2472 31.0697L81.0733 28.95L81.9605 29.4907C82.1273 29.5926 82.3147 29.656 82.5091 29.6762C82.7034 29.6964 82.8999 29.6729 83.084 29.6075C83.57 29.4298 84.0862 29.3494 84.6032 29.3712C85.1202 29.3929 85.6279 29.5162 86.0972 29.7341C86.5666 29.952 86.9884 30.2603 87.3386 30.6412C87.6888 31.0221 87.9606 31.4683 88.1384 31.9543C88.3162 32.4402 88.3965 32.9564 88.3748 33.4734C88.3531 33.9905 88.2297 34.4981 88.0118 34.9675C87.7939 35.4368 87.4857 35.8586 87.1047 36.2088C86.7238 36.5591 86.2776 36.8308 85.7917 37.0086V37.0126Z" fill="black"/>
<path d="M68.1818 30.8517L65.7162 31.7485L66.6135 34.2154L69.0791 33.3186L68.1818 30.8517Z" fill="black"/>
<path d="M63.2483 32.6466L60.7827 33.5435L61.68 36.0103L64.1456 35.1135L63.2483 32.6466Z" fill="black"/>
<path d="M58.3162 34.4435L55.8506 35.3403L56.7479 37.8072L59.2135 36.9103L58.3162 34.4435Z" fill="black"/>
<path d="M53.3825 36.2384L50.9169 37.1353L51.8141 39.6021L54.2797 38.7053L53.3825 36.2384Z" fill="black"/>
<path d="M48.4494 38.0343L45.9838 38.9312L46.881 41.398L49.3466 40.5012L48.4494 38.0343Z" fill="black"/>
<path d="M43.5157 39.8307L41.05 40.7275L41.9473 43.1944L44.4129 42.2976L43.5157 39.8307Z" fill="black"/>
<path d="M38.5819 41.6251L36.1163 42.522L37.0136 44.9888L39.4792 44.092L38.5819 41.6251Z" fill="black"/>
<path d="M33.6499 43.4195L31.1835 44.3179L32.0819 46.7843L34.5483 45.8859L33.6499 43.4195Z" fill="black"/>
<path d="M28.7164 45.2164L26.25 46.1147L27.1484 48.5812L29.6148 47.6828L28.7164 45.2164Z" fill="black"/>
<path d="M32.442 67.1195H40.5584C40.868 67.9953 41.4772 68.7333 42.2784 69.2033C43.0795 69.6733 44.021 69.8449 44.9365 69.6878C45.8519 69.5307 46.6824 69.0551 47.281 68.345C47.8797 67.6348 48.2081 66.7359 48.2081 65.8071C48.2081 64.8782 47.8797 63.9793 47.281 63.2692C46.6824 62.559 45.8519 62.0834 44.9365 61.9263C44.021 61.7693 43.0795 61.9409 42.2784 62.4109C41.4772 62.8808 40.868 63.6189 40.5584 64.4946H32.442C30.3535 64.4946 28.3505 65.3243 26.8736 66.8011C25.3968 68.2779 24.5671 70.2809 24.5671 72.3695C24.5671 74.458 25.3968 76.461 26.8736 77.9378C28.3505 79.4147 30.3535 80.2443 32.442 80.2443H54.7541V77.6194H32.442C31.0496 77.6194 29.7143 77.0663 28.7298 76.0817C27.7452 75.0972 27.1921 73.7618 27.1921 72.3695C27.1921 70.9771 27.7452 69.6418 28.7298 68.6572C29.7143 67.6727 31.0496 67.1195 32.442 67.1195ZM44.2543 64.4946C44.5139 64.4946 44.7677 64.5716 44.9835 64.7158C45.1993 64.86 45.3675 65.065 45.4669 65.3048C45.5662 65.5446 45.5922 65.8085 45.5416 66.0631C45.4909 66.3177 45.3659 66.5516 45.1824 66.7351C44.9988 66.9187 44.765 67.0437 44.5104 67.0943C44.2558 67.145 43.9919 67.119 43.7521 67.0196C43.5122 66.9203 43.3072 66.7521 43.163 66.5362C43.0188 66.3204 42.9418 66.0667 42.9418 65.8071C42.9418 65.459 43.0801 65.1251 43.3263 64.879C43.5724 64.6329 43.9062 64.4946 44.2543 64.4946Z" fill="black"/>
<path d="M60.0041 77.6191H57.3792V80.2441H60.0041V77.6191Z" fill="black"/>
<path d="M73.7852 77.6191H62.6291V80.2441H73.7852C74.6554 80.2441 75.49 80.5898 76.1054 81.2051C76.7207 81.8205 77.0664 82.6551 77.0664 83.5253C77.0664 84.3955 76.7207 85.2301 76.1054 85.8455C75.49 86.4608 74.6554 86.8065 73.7852 86.8065H32.4421V89.4314H73.7852C75.3516 89.4314 76.8539 88.8092 77.9615 87.7016C79.0691 86.594 79.6914 85.0917 79.6914 83.5253C79.6914 81.9589 79.0691 80.4566 77.9615 79.349C76.8539 78.2414 75.3516 77.6191 73.7852 77.6191Z" fill="black"/>
<path d="M14.0674 84.1817C13.3448 84.1787 12.6354 84.3746 12.0168 84.7479C11.3981 85.1212 10.8941 85.6575 10.56 86.2982C10.2258 86.9388 10.0744 87.6591 10.1223 88.38C10.1702 89.101 10.4155 89.7949 10.8315 90.3857C11.2474 90.9765 11.8179 91.4415 12.4805 91.7297C13.1431 92.0179 13.8722 92.1183 14.588 92.0197C15.3038 91.9212 15.9787 91.6276 16.5387 91.1711C17.0988 90.7146 17.5225 90.1128 17.7633 89.4316H29.8171V86.8066H17.7633C17.4928 86.0416 16.9926 85.3788 16.331 84.9089C15.6694 84.439 14.8788 84.185 14.0674 84.1817ZM14.0674 89.4316C13.8078 89.4316 13.554 89.3546 13.3382 89.2104C13.1224 89.0662 12.9541 88.8612 12.8548 88.6214C12.7555 88.3815 12.7295 88.1177 12.7801 87.8631C12.8308 87.6085 12.9558 87.3746 13.1393 87.191C13.3229 87.0075 13.5567 86.8825 13.8113 86.8319C14.0659 86.7812 14.3298 86.8072 14.5696 86.9065C14.8095 87.0059 15.0145 87.1741 15.1587 87.3899C15.3029 87.6058 15.3799 87.8595 15.3799 88.1191C15.3799 88.4672 15.2416 88.801 14.9954 89.0472C14.7493 89.2933 14.4155 89.4316 14.0674 89.4316Z" fill="black"/>
</svg>
