<svg width="24" height="25" viewBox="0 0 24 25" fill="none" xmlns="http://www.w3.org/2000/svg">
<path fill-rule="evenodd" clip-rule="evenodd" d="M13.6348 21.1489V13.1876H16.3582L16.7668 10.0841H13.6348V8.10289C13.6348 7.20462 13.8881 6.59246 15.2029 6.59246L16.877 6.59178V3.81585C16.5875 3.77894 15.5937 3.69434 14.437 3.69434C12.0216 3.69434 10.368 5.14042 10.368 7.79552V10.0841H7.63635V13.1876H10.368V21.1489H13.6348Z" fill="white"/>
<mask id="mask0_504_19602" style="mask-type:luminance" maskUnits="userSpaceOnUse" x="7" y="3" width="10" height="19">
<path fill-rule="evenodd" clip-rule="evenodd" d="M13.6348 21.1489V13.1876H16.3582L16.7668 10.0841H13.6348V8.10289C13.6348 7.20462 13.8881 6.59246 15.2029 6.59246L16.877 6.59178V3.81585C16.5875 3.77894 15.5937 3.69434 14.437 3.69434C12.0216 3.69434 10.368 5.14042 10.368 7.79552V10.0841H7.63635V13.1876H10.368V21.1489H13.6348Z" fill="white"/>
</mask>
<g mask="url(#mask0_504_19602)">
</g>
</svg>
