<svg width="50" height="51" viewBox="0 0 50 51" fill="none" xmlns="http://www.w3.org/2000/svg">
<circle cx="25" cy="25.9214" r="24.5" fill="#BF252D" stroke="white"/>
<path d="M31.0001 18.4013C29.4088 16.81 27.2505 15.916 25.0001 15.916C22.7496 15.916 20.5914 16.81 19.0001 18.4013C17.4088 19.9926 16.5148 22.1509 16.5148 24.4013C16.5148 26.6517 17.4088 28.81 19.0001 30.4013L24.2701 35.6813C24.363 35.775 24.4736 35.8494 24.5955 35.9002C24.7173 35.951 24.848 35.9771 24.9801 35.9771C25.1121 35.9771 25.2428 35.951 25.3646 35.9002C25.4865 35.8494 25.5971 35.775 25.6901 35.6813L31.0001 30.3513C32.5847 28.7666 33.4749 26.6174 33.4749 24.3763C33.4749 22.1352 32.5847 19.986 31.0001 18.4013ZM29.5701 28.9213L25.0001 33.5113L20.4301 28.9213C19.5272 28.0176 18.9125 26.8665 18.6637 25.6136C18.415 24.3606 18.5432 23.062 19.0324 21.882C19.5215 20.7019 20.3495 19.6933 21.4117 18.9838C22.4739 18.2742 23.7226 17.8955 25.0001 17.8955C26.2775 17.8955 27.5262 18.2742 28.5884 18.9838C29.6506 19.6933 30.4786 20.7019 30.9677 21.882C31.4569 23.062 31.5851 24.3606 31.3364 25.6136C31.0876 26.8665 30.4729 28.0176 29.5701 28.9213ZM22.0001 21.3313C21.1928 22.1411 20.7394 23.2379 20.7394 24.3813C20.7394 25.5247 21.1928 26.6215 22.0001 27.4313C22.5998 28.0321 23.3636 28.4424 24.1957 28.6107C25.0278 28.779 25.891 28.6979 26.6771 28.3775C27.4632 28.057 28.1372 27.5116 28.6145 26.8095C29.0918 26.1075 29.3512 25.2802 29.3601 24.4313C29.3646 23.8645 29.2554 23.3026 29.039 22.7787C28.8225 22.2548 28.5033 21.7797 28.1001 21.3813C27.7037 20.9759 27.2311 20.6528 26.7095 20.4308C26.1878 20.2087 25.6274 20.092 25.0605 20.0873C24.4935 20.0827 23.9313 20.1902 23.406 20.4037C22.8808 20.6172 22.403 20.9324 22.0001 21.3313ZM26.6901 26.0113C26.3111 26.396 25.8103 26.6372 25.2732 26.6936C24.7361 26.7499 24.1961 26.6179 23.7456 26.3202C23.295 26.0225 22.9618 25.5775 22.8031 25.0614C22.6443 24.5452 22.6697 23.9899 22.875 23.4905C23.0803 22.991 23.4528 22.5783 23.9286 22.323C24.4045 22.0678 24.9543 21.9857 25.484 22.0909C26.0137 22.1961 26.4904 22.4821 26.8326 22.8998C27.1748 23.3176 27.3612 23.8413 27.3601 24.3813C27.3455 24.9986 27.0865 25.5848 26.6401 26.0113H26.6901Z" fill="#F0FDF4"/>
</svg>
