<svg width="146" height="59" viewBox="0 0 146 59" fill="none" xmlns="http://www.w3.org/2000/svg">
<path d="M10.5078 9.75C29.0627 10.3187 47.5801 11.8944 65.9932 14.2334H65.9951L68.0342 14.4971C68.7144 14.5805 69.3955 14.6609 70.0771 14.7412C71.4397 14.9017 72.805 15.0619 74.168 15.249H74.1689L74.9883 15.3477C75.8226 15.4376 76.6926 15.52 77.5186 15.7607L77.4551 16.251C76.0667 16.2879 74.6785 16.277 73.2949 16.2627C71.9102 16.2484 70.5304 16.2309 69.1514 16.2529H69.1494C65.9507 16.2825 62.7715 16.2269 59.5879 16.3408H59.583C47.2597 16.5504 34.9414 17.1791 22.6602 18.207L22.6436 18.209L22.626 18.208C22.5274 18.2028 22.4541 18.242 22.374 18.3418C22.2856 18.4521 22.2229 18.5923 22.1396 18.7568L21.6465 19.9209C20.5196 22.6474 19.5452 25.4382 18.5684 28.2324V28.2334C18.2192 29.2121 17.9308 30.2938 17.5098 31.2881L17.3018 31.7783L17.0576 31.3057C16.7676 30.746 16.5405 30.1632 16.3438 29.5752L15.6631 27.6895C14.0908 23.2855 12.6342 18.839 11.3203 14.3496V14.3486C11.1297 13.7121 10.9659 13.0683 10.7998 12.4336C10.6331 11.7964 10.4642 11.1663 10.2627 10.5469L10.25 10.5088V9.74219L10.5078 9.75Z" fill="#BF252D" stroke="white" stroke-width="0.5"/>
<path d="M135.75 49.085L135.492 49.0771C116.667 48.5066 97.8808 46.8884 79.2031 44.4941H79.2021C77.9506 44.327 76.6964 44.1768 75.4404 44.0264C74.8126 43.9512 74.1839 43.8759 73.5557 43.7988L71.6709 43.5596C70.6474 43.4222 69.5296 43.3751 68.4785 43.0703L68.5361 42.5801L69.1904 42.5576C69.8437 42.5427 70.4959 42.5486 71.1445 42.5576C72.0116 42.5696 72.8709 42.5877 73.7305 42.5713L73.7373 42.5703L73.7354 42.7979L73.7373 42.5713C88.7163 42.6592 103.696 42.1149 118.633 40.998L121.62 40.7666C122.303 40.707 122.922 40.7152 123.538 40.5811C123.622 40.4987 123.693 40.3971 123.759 40.2764C123.838 40.1316 123.896 39.9898 123.976 39.8223C125.27 36.7545 126.394 33.6169 127.477 30.4619L127.478 30.4609L127.96 29.0029C128.122 28.5107 128.292 28.017 128.489 27.5391L128.698 27.0322L128.944 27.5225C129.271 28.1748 129.521 28.8561 129.751 29.5322L130.414 31.3652C131.943 35.6478 133.351 39.9721 134.636 44.333L134.782 44.8311C134.923 45.3291 135.052 45.8293 135.181 46.3242C135.353 46.9864 135.526 47.6414 135.737 48.2842L135.75 48.3213V49.085Z" fill="#BF252D" stroke="white" stroke-width="0.5"/>
<path d="M60.3068 24.5222C61.8141 23.8433 63.52 23.9188 65.1211 24.145C65.1266 25.0648 65.0715 25.9847 65.0366 26.9045C64.1193 26.7628 63.134 26.4482 62.2296 26.8014C61.7627 26.9597 61.6046 27.6992 62.0457 27.9751C62.6965 28.4222 63.4906 28.584 64.1818 28.9556C64.9391 29.3291 65.6046 29.984 65.8086 30.8265C66.0696 31.9524 65.8601 33.2199 65.1174 34.1268C64.5494 34.8388 63.7296 35.3171 62.8564 35.5562C61.4759 35.9554 60.0108 35.8873 58.6138 35.6077C58.5972 34.6585 58.6377 33.7074 58.7002 32.7618C59.5899 32.9274 60.4998 33.1665 61.4097 33.0157C61.8582 32.955 62.2755 32.5705 62.2296 32.0904C62.2351 31.704 61.8417 31.5293 61.5476 31.3931C60.6707 31.0179 59.6616 30.8265 58.9759 30.1109C58.1064 29.204 57.9943 27.7893 58.3582 26.634C58.6542 25.683 59.4005 24.9158 60.3068 24.5222Z" fill="white"/>
<path d="M114.642 24.4465C116.11 23.8579 117.743 23.9149 119.279 24.154C119.281 25.0702 119.265 25.9881 119.18 26.9024C118.327 26.7571 117.441 26.5124 116.579 26.7258C116.121 26.8307 115.79 27.3513 116.013 27.7983C116.329 28.1534 116.798 28.3006 117.222 28.4772C118.057 28.7954 118.947 29.1394 119.509 29.8697C120.224 30.7969 120.222 32.1012 119.84 33.1645C119.461 34.2297 118.528 35.0115 117.491 35.3997C115.98 35.9699 114.307 35.9295 112.75 35.591C112.783 34.6215 112.816 33.6502 112.871 32.6825C113.836 32.9769 114.925 33.2749 115.904 32.8959C116.417 32.712 116.627 31.9099 116.114 31.6064C115.211 31.0545 114.066 30.9698 113.268 30.2303C112.353 29.4448 112.221 28.1166 112.423 26.9981C112.64 25.8244 113.551 24.8752 114.642 24.4465Z" fill="white"/>
<path d="M28.7794 24.2407C30.136 24.2186 31.4908 24.2205 32.8474 24.2389C34.2095 28.0138 35.5349 31.8016 36.9375 35.5617C35.6783 35.5857 34.4191 35.6133 33.1599 35.547C33.0036 34.9712 32.8364 34.3954 32.5661 33.8619C31.2702 33.8417 29.9742 33.8546 28.6783 33.8656C28.4742 34.423 28.2812 34.9823 28.1029 35.5489C26.9889 35.6077 25.8731 35.593 24.7573 35.5654C25.057 34.5316 25.4522 33.5308 25.8125 32.5172C26.7978 29.7559 27.8014 27.002 28.7794 24.2407ZM30.6121 27.8445C30.2849 29.0716 29.8088 30.2526 29.4356 31.4667C30.2316 31.4539 31.0257 31.4539 31.8217 31.4667C31.4448 30.2508 31.0073 29.055 30.6121 27.8445Z" fill="white"/>
<path d="M39.3697 24.2128C40.48 24.2349 41.5884 24.2367 42.6987 24.2109C42.7557 28.0006 42.73 31.792 42.7116 35.5835C41.5921 35.5835 40.4726 35.5945 39.3531 35.5724C39.3458 31.7865 39.3127 27.9987 39.3697 24.2128Z" fill="white"/>
<path d="M46.386 24.2164C47.9632 24.1521 49.5441 24.0969 51.1231 24.1281C52.2775 24.1741 53.5165 24.3379 54.4522 25.0756C56.0147 26.2934 55.9467 29.0123 54.3566 30.1787C54.0239 30.4325 53.6525 30.6257 53.2904 30.8299C54.1948 32.4285 55.2114 33.9609 56.1121 35.5632C54.7647 35.5945 53.4154 35.6 52.068 35.5596C51.6728 34.7906 51.2665 34.0272 50.8474 33.2711C50.5018 32.653 50.2316 31.9833 49.7518 31.4535C49.7426 32.824 49.8088 34.1964 49.7114 35.5669C48.6029 35.5908 47.4926 35.5982 46.3823 35.5651C46.3989 31.7828 46.3952 27.9987 46.386 24.2164ZM49.7095 26.7478C49.7353 27.583 49.7353 28.42 49.7389 29.257C50.2849 29.2349 50.8786 29.3104 51.375 29.0252C52.0606 28.6444 52.2353 27.5186 51.5661 27.0366C51.0331 26.6356 50.3327 26.7183 49.7095 26.7478Z" fill="white"/>
<path d="M68.7464 24.2129C69.8585 24.235 70.9707 24.235 72.0828 24.2129C72.1324 25.5944 72.0938 26.9778 72.1122 28.3594C73.5001 28.3355 74.8898 28.3336 76.2795 28.3594C76.3034 26.9778 76.263 25.5944 76.3126 24.2129C77.4229 24.235 78.535 24.235 79.6453 24.2129C79.7005 28.0025 79.6766 31.794 79.6582 35.5836C78.5369 35.5854 77.4174 35.5873 76.2961 35.5836C76.2813 34.1542 76.2869 32.7267 76.2924 31.2973C74.8953 31.2678 73.4964 31.266 72.0994 31.2991C72.1086 32.7267 72.1141 34.1542 72.0957 35.5836C70.9744 35.5836 69.8549 35.5873 68.7336 35.5836C68.717 31.794 68.6913 28.0025 68.7464 24.2129Z" fill="white"/>
<path d="M83.3381 24.2127C85.7867 24.2347 88.2352 24.2403 90.6856 24.209C90.7297 25.1012 90.7297 25.9934 90.6764 26.8856C89.3602 26.8544 88.044 26.8599 86.7279 26.8838C86.7168 27.4357 86.7205 27.9894 86.7462 28.5431C87.9944 28.51 89.2444 28.5137 90.4944 28.5395C90.5238 29.3967 90.5238 30.2558 90.4687 31.1112C89.2223 31.0763 87.976 31.0818 86.7315 31.1094C86.7168 31.6944 86.7168 32.2794 86.7297 32.8662C88.044 32.8938 89.3602 32.8957 90.6745 32.8644C90.7297 33.7695 90.726 34.6746 90.6929 35.5815C88.2389 35.5797 85.7867 35.6073 83.3345 35.565C83.3584 31.7809 83.3492 27.9968 83.3381 24.2127Z" fill="white"/>
<path d="M94.1951 24.2185C95.3256 24.2314 96.458 24.2351 97.5921 24.2148C97.5995 27.0037 97.5333 29.7963 97.6271 32.5851C98.7484 32.552 99.8716 32.5539 100.995 32.5814C101.024 33.5804 101.024 34.5811 100.993 35.58C98.7263 35.5764 96.458 35.6168 94.1914 35.5543C94.23 31.7757 94.2263 27.9953 94.1951 24.2185Z" fill="white"/>
<path d="M103.55 24.2108C104.655 24.2347 105.761 24.2384 106.866 24.209C106.925 26.9979 106.899 29.7904 106.879 32.5811C108.028 32.5535 109.179 32.5535 110.329 32.5811C110.344 33.5819 110.346 34.5826 110.329 35.5834C108.066 35.5779 105.804 35.6036 103.542 35.5668C103.557 31.7809 103.542 27.9968 103.55 24.2108Z" fill="white"/>
</svg>
