<svg width="50" height="51" viewBox="0 0 50 51" fill="none" xmlns="http://www.w3.org/2000/svg">
<circle cx="25" cy="25.9214" r="24.5" fill="#BF252D" stroke="white"/>
<path d="M34 15.9214H16C15.7348 15.9214 15.4804 16.0267 15.2929 16.2143C15.1054 16.4018 15 16.6562 15 16.9214V34.9214C15 35.1866 15.1054 35.441 15.2929 35.6285C15.4804 35.816 15.7348 35.9214 16 35.9214H34C34.2652 35.9214 34.5196 35.816 34.7071 35.6285C34.8946 35.441 35 35.1866 35 34.9214V16.9214C35 16.6562 34.8946 16.4018 34.7071 16.2143C34.5196 16.0267 34.2652 15.9214 34 15.9214ZM21 33.9214H17V29.9214H21V33.9214ZM21 27.9214H17V23.9214H21V27.9214ZM21 21.9214H17V17.9214H21V21.9214ZM27 33.9214H23V29.9214H27V33.9214ZM27 27.9214H23V23.9214H27V27.9214ZM27 21.9214H23V17.9214H27V21.9214ZM33 33.9214H29V29.9214H33V33.9214ZM33 27.9214H29V23.9214H33V27.9214ZM33 21.9214H29V17.9214H33V21.9214Z" fill="#F0FDF4"/>
</svg>
