<svg width="50" height="51" viewBox="0 0 50 51" fill="none" xmlns="http://www.w3.org/2000/svg">
<circle cx="25" cy="25.9214" r="24.5" fill="#BF252D" stroke="white"/>
<path d="M33.21 22.7414L27 16.7014C26.474 16.2013 25.7759 15.9224 25.05 15.9224C24.3241 15.9224 23.626 16.2013 23.1 16.7014L16.89 22.7014C16.6141 22.9423 16.3922 23.2387 16.2388 23.5713C16.0854 23.9039 16.004 24.2652 16 24.6314V33.2114C16.0105 33.939 16.309 34.6328 16.8301 35.1408C17.3512 35.6487 18.0524 35.9294 18.78 35.9214H31.22C31.9476 35.9294 32.6488 35.6487 33.1699 35.1408C33.691 34.6328 33.9895 33.939 34 33.2114V24.6314C33.9992 24.2799 33.929 23.932 33.7935 23.6076C33.6579 23.2833 33.4596 22.9889 33.21 22.7414ZM24.44 18.1414C24.593 18.0016 24.7927 17.924 25 17.924C25.2073 17.924 25.407 18.0016 25.56 18.1414L31 23.4214L25.53 28.7014C25.377 28.8413 25.1773 28.9188 24.97 28.9188C24.7627 28.9188 24.563 28.8413 24.41 28.7014L19 23.4214L24.44 18.1414ZM32 33.2114C31.9871 33.4077 31.8987 33.5913 31.7532 33.7237C31.6078 33.8562 31.4166 33.927 31.22 33.9214H18.78C18.5834 33.927 18.3922 33.8562 18.2468 33.7237C18.1013 33.5913 18.0129 33.4077 18 33.2114V25.2714L22.05 29.1714L20.39 30.7714C20.2037 30.9588 20.0992 31.2122 20.0992 31.4764C20.0992 31.7406 20.2037 31.994 20.39 32.1814C20.4829 32.2789 20.5946 32.3566 20.7184 32.4099C20.8421 32.4632 20.9753 32.4909 21.11 32.4914C21.3675 32.4904 21.6146 32.3901 21.8 32.2114L23.57 30.5114C24.0096 30.78 24.5148 30.9222 25.03 30.9222C25.5452 30.9222 26.0504 30.78 26.49 30.5114L28.26 32.2114C28.4454 32.3901 28.6925 32.4904 28.95 32.4914C29.0847 32.4909 29.2179 32.4632 29.3416 32.4099C29.4654 32.3566 29.5771 32.2789 29.67 32.1814C29.8563 31.994 29.9608 31.7406 29.9608 31.4764C29.9608 31.2122 29.8563 30.9588 29.67 30.7714L28 29.1714L32 25.2714V33.2114Z" fill="#F0FDF4"/>
</svg>
