<svg width="369" height="142" viewBox="0 0 369 142" fill="none" xmlns="http://www.w3.org/2000/svg">
<g opacity="0.1">
<path opacity="0.62" d="M247.358 104.241C312.66 101.198 325.939 139.382 347.077 130.563C348.03 88.4093 359.875 5.4888 358.277 2.94861C356.679 0.408414 129.165 5.25811 2.68259 5.47323L2.40997 46.5773C29.1518 72.0507 7.81891 78.7262 104.924 77.4584C173.525 76.5627 174.263 107.647 247.358 104.241Z" fill="black" fill-opacity="0.46"/>
<path d="M254.719 111.573C322.166 107.556 336.399 146.84 358.128 137.444C358.549 93.8665 369.683 8.01177 367.998 5.40788C366.313 2.80398 131.247 10.8542 0.532992 12.7656L0.800146 55.2494C28.7774 81.2184 6.81947 88.4024 107.159 85.7954C178.045 83.9536 179.222 116.069 254.719 111.573Z" fill="black" fill-opacity="0.44"/>
</g>
</svg>
