<svg width="1127" height="238" viewBox="0 0 1127 238" fill="none" xmlns="http://www.w3.org/2000/svg">
<g opacity="0.1">
<path opacity="0.62" d="M830.561 113.575C1050.27 103.338 1094.94 231.805 1166.06 202.134C1169.27 60.309 1209.12 -218.676 1203.74 -227.222C1198.37 -235.769 432.899 -219.452 7.35242 -218.728L6.43521 -80.434C96.4076 5.27069 24.6334 27.7306 351.343 23.4649C582.15 20.4514 584.633 125.034 830.561 113.575Z" fill="black" fill-opacity="0.46"/>
<path d="M855.325 138.245C1082.25 124.731 1130.14 256.903 1203.24 225.289C1204.66 78.6727 1242.12 -210.184 1236.45 -218.945C1230.78 -227.706 439.904 -200.621 0.119727 -194.19L1.01856 -51.2539C95.1476 36.1185 21.2704 60.2888 358.861 51.5175C597.355 45.3209 601.317 153.372 855.325 138.245Z" fill="black" fill-opacity="0.44"/>
</g>
</svg>
