<svg width="293" height="271" viewBox="0 0 293 271" fill="none" xmlns="http://www.w3.org/2000/svg">
<g opacity="0.07">
<path d="M0.911499 7.19922C40.8024 6.85416 80.6992 8.67401 120.439 12.1427C126.316 12.7152 132.207 13.0615 138.083 13.634C140.474 13.8765 142.901 13.8523 145.246 14.437C139.309 14.8287 133.352 14.8135 127.412 15.142C120.563 15.4746 113.702 15.6256 106.864 16.1398C80.3948 17.6316 53.9729 20.024 27.6637 23.2708C26.7812 23.258 26.461 24.1691 26.1549 24.8343C23.5263 31.6151 21.3992 38.5782 19.2716 45.5293C18.5828 47.7295 18.0824 49.9895 17.2655 52.1511C16.6112 51.0013 16.0851 49.7909 15.6172 48.5546C11.2564 37.9359 7.20686 27.1862 3.55153 16.3023C2.63127 13.6191 1.93378 10.8679 0.951116 8.20701L0.911499 7.19922Z" fill="black"/>
<path d="M292.19 262.494C252.309 263.429 212.39 262.199 172.602 259.318C166.718 258.833 160.823 258.573 154.939 258.088C152.545 257.881 150.118 257.941 147.765 257.391C153.696 256.911 159.652 256.838 165.587 256.422C172.43 255.988 179.288 255.736 186.117 255.121C212.562 253.238 238.945 250.455 265.204 246.82C266.086 246.82 266.393 245.904 266.689 245.234C269.217 238.415 271.241 231.421 273.266 224.44C273.922 222.23 274.389 219.962 275.174 217.789C275.845 218.929 276.389 220.131 276.875 221.361C281.392 231.914 285.6 242.602 289.416 253.431C290.376 256.1 291.114 258.841 292.136 261.487L292.19 262.494Z" fill="black"/>
</g>
</svg>
