<svg width="24" height="25" viewBox="0 0 24 25" fill="none" xmlns="http://www.w3.org/2000/svg">
<path fill-rule="evenodd" clip-rule="evenodd" d="M7.60057 2.60303H16.3991C19.3872 2.60303 21.8182 5.03402 21.8181 8.02195V16.8205C21.8181 19.8084 19.3872 22.2394 16.3991 22.2394H7.60057C4.61264 22.2394 2.18176 19.8085 2.18176 16.8205V8.02195C2.18176 5.03402 4.61264 2.60303 7.60057 2.60303ZM16.3992 20.4972C18.4266 20.4972 20.076 18.8478 20.076 16.8205H20.0759V8.02195C20.0759 5.99469 18.4265 4.34526 16.3991 4.34526H7.60057C5.57331 4.34526 3.924 5.99469 3.924 8.02195V16.8205C3.924 18.8478 5.57331 20.4973 7.60057 20.4972H16.3992ZM6.85709 12.4213C6.85709 9.58545 9.16413 7.27835 11.9999 7.27835C14.8358 7.27835 17.1428 9.58545 17.1428 12.4213C17.1428 15.2571 14.8358 17.5641 11.9999 17.5641C9.16413 17.5641 6.85709 15.2571 6.85709 12.4213ZM8.62792 12.4212C8.62792 14.2805 10.1407 15.7931 11.9999 15.7931C13.8592 15.7931 15.372 14.2805 15.372 12.4212C15.372 10.5618 13.8593 9.04911 11.9999 9.04911C10.1406 9.04911 8.62792 10.5618 8.62792 12.4212Z" fill="white"/>
<mask id="mask0_504_19604" style="mask-type:luminance" maskUnits="userSpaceOnUse" x="2" y="2" width="20" height="21">
<path fill-rule="evenodd" clip-rule="evenodd" d="M7.60057 2.60303H16.3991C19.3872 2.60303 21.8182 5.03402 21.8181 8.02195V16.8205C21.8181 19.8084 19.3872 22.2394 16.3991 22.2394H7.60057C4.61264 22.2394 2.18176 19.8085 2.18176 16.8205V8.02195C2.18176 5.03402 4.61264 2.60303 7.60057 2.60303ZM16.3992 20.4972C18.4266 20.4972 20.076 18.8478 20.076 16.8205H20.0759V8.02195C20.0759 5.99469 18.4265 4.34526 16.3991 4.34526H7.60057C5.57331 4.34526 3.924 5.99469 3.924 8.02195V16.8205C3.924 18.8478 5.57331 20.4973 7.60057 20.4972H16.3992ZM6.85709 12.4213C6.85709 9.58545 9.16413 7.27835 11.9999 7.27835C14.8358 7.27835 17.1428 9.58545 17.1428 12.4213C17.1428 15.2571 14.8358 17.5641 11.9999 17.5641C9.16413 17.5641 6.85709 15.2571 6.85709 12.4213ZM8.62792 12.4212C8.62792 14.2805 10.1407 15.7931 11.9999 15.7931C13.8592 15.7931 15.372 14.2805 15.372 12.4212C15.372 10.5618 13.8593 9.04911 11.9999 9.04911C10.1406 9.04911 8.62792 10.5618 8.62792 12.4212Z" fill="white"/>
</mask>
<g mask="url(#mask0_504_19604)">
</g>
</svg>
