<svg width="24" height="25" viewBox="0 0 24 25" fill="none" xmlns="http://www.w3.org/2000/svg">
<path d="M19.2 3.42139H4.8C3.81 3.42139 3 4.23139 3 5.22139V19.6214C3 20.6114 3.81 21.4214 4.8 21.4214H19.2C20.19 21.4214 21 20.6114 21 19.6214V5.22139C21 4.23139 20.19 3.42139 19.2 3.42139ZM8.4 18.7214H5.7V10.6214H8.4V18.7214ZM7.05 9.09139C6.15 9.09139 5.43 8.37139 5.43 7.47139C5.43 6.57139 6.15 5.85139 7.05 5.85139C7.95 5.85139 8.67 6.57139 8.67 7.47139C8.67 8.37139 7.95 9.09139 7.05 9.09139ZM18.3 18.7214H15.6V13.9514C15.6 13.2314 14.97 12.6014 14.25 12.6014C13.53 12.6014 12.9 13.2314 12.9 13.9514V18.7214H10.2V10.6214H12.9V11.7014C13.35 10.9814 14.34 10.4414 15.15 10.4414C16.86 10.4414 18.3 11.8814 18.3 13.5914V18.7214Z" fill="white"/>
</svg>
