<svg width="46" height="32" viewBox="0 0 46 32" fill="none" xmlns="http://www.w3.org/2000/svg">
<g clip-path="url(#clip0_2455_4748)">
<path d="M28.075 7.60938H18.7417V24.3797H28.075V7.60938Z" fill="#FF5F00"/>
<path d="M19.3338 15.9973C19.3338 12.738 20.8449 9.62689 23.393 7.61207C18.7708 3.96763 12.0449 4.76763 8.40044 9.41948C4.78563 14.0417 5.58563 20.738 10.2375 24.3824C14.119 27.4343 19.5412 27.4343 23.4227 24.3824C20.8449 22.3676 19.3338 19.2565 19.3338 15.9973Z" fill="#EB001B"/>
<path d="M40.6671 15.9973C40.6671 21.8936 35.8967 26.6639 30.0004 26.6639C27.6004 26.6639 25.2893 25.8639 23.4226 24.3824C28.0448 20.738 28.8448 14.0417 25.2004 9.38985C24.6671 8.738 24.0745 8.11578 23.4226 7.61207C28.0448 3.96763 34.7708 4.76763 38.3856 9.41948C39.8671 11.2861 40.6671 13.5973 40.6671 15.9973Z" fill="#F79E1B"/>
</g>
<defs>
<clipPath id="clip0_2455_4748">
<rect width="45.1556" height="32" fill="white" transform="translate(0.844482)"/>
</clipPath>
</defs>
</svg>
