<svg width="100" height="101" viewBox="0 0 100 101" fill="none" xmlns="http://www.w3.org/2000/svg">
<path d="M89.9071 68.0227L84.8617 55.413C85.0699 55.3986 85.2717 55.3345 85.4502 55.2262C85.6286 55.1178 85.7786 54.9683 85.8875 54.7902L89.8129 48.2479C89.9026 48.0985 89.9615 47.9328 89.9863 47.7603C90.0111 47.5879 90.0012 47.4123 89.9572 47.2437C89.9132 47.0752 89.836 46.9171 89.7301 46.7788C89.6242 46.6405 89.4918 46.5247 89.3405 46.4382L84.7609 43.8213V33.1809C84.7564 31.8126 84.322 30.4804 83.5193 29.3725C82.7165 28.2645 81.586 27.4368 80.2872 27.0062C81.6995 25.7839 82.7043 24.1591 83.1669 22.3496C83.6296 20.5401 83.5281 18.6324 82.8759 16.8823C82.2237 15.1321 81.052 13.6232 79.518 12.5578C77.9839 11.4924 76.1609 10.9214 74.2932 10.9214C72.4254 10.9214 70.6024 11.4924 69.0683 12.5578C67.5343 13.6232 66.3627 15.1321 65.7105 16.8823C65.0583 18.6324 64.9567 20.5401 65.4194 22.3496C65.882 24.1591 66.8869 25.7839 68.2991 27.0062C67.0013 27.4377 65.8719 28.2658 65.0701 29.3737C64.2684 30.4816 63.8348 31.8133 63.8307 33.1809V38.3454L56.2559 48.0791C56.0601 48.3308 55.963 48.6453 55.9827 48.9636C56.0025 49.2819 56.1378 49.582 56.3632 49.8075L57.0973 50.5416L47.5115 60.1261L39.1857 51.799C38.4377 51.0853 37.4436 50.6871 36.4098 50.6871C35.3759 50.6871 34.3818 51.0853 33.6339 51.799L13.278 72.1549L10.9686 74.4669C10.6626 74.7701 10.4195 75.1308 10.2533 75.5283C10.0871 75.9257 10.001 76.352 10 76.7828C9.99901 77.2136 10.0831 77.6403 10.2475 78.0385C10.4118 78.4367 10.6532 78.7985 10.9578 79.1031C11.2623 79.4078 11.6241 79.6493 12.0222 79.8138C12.4204 79.9782 12.8471 80.0625 13.2779 80.0616C13.7086 80.0607 14.135 79.9747 14.5325 79.8086C14.9299 79.6425 15.2907 79.3996 15.594 79.0937L16.9823 77.7054L22.5328 83.2572L21.1419 84.6455C20.533 85.26 20.1922 86.0906 20.1942 86.9557C20.1963 87.8208 20.5409 88.6498 21.1527 89.2615C21.7645 89.8731 22.5936 90.2175 23.4587 90.2192C24.3238 90.221 25.1544 89.88 25.7687 89.2709L28.082 86.9589L48.4378 66.603C49.0072 66.0285 49.3851 65.2922 49.52 64.4947C49.6549 63.6972 49.5402 62.8775 49.1915 62.1477L58.9475 52.3918L61.5971 55.0414C61.8424 55.2868 62.1752 55.4247 62.5222 55.4248C62.5497 55.4248 62.5771 55.4248 62.6046 55.4248C62.7901 55.4133 62.9709 55.3624 63.1352 55.2755C63.2994 55.1887 63.4433 55.0678 63.5572 54.921L64.5124 53.6885C65.0395 55.4972 65.8675 57.2042 66.9618 58.7378L63.9183 71.9115L56.1984 83.4888C56.0165 83.7612 55.9435 84.0919 55.9936 84.4156C56.0438 84.7392 56.2135 85.0323 56.4692 85.2369L63.0116 90.4708C63.2449 90.6547 63.5336 90.7543 63.8307 90.7534C64.0371 90.7534 64.2407 90.7046 64.4246 90.6109C64.6086 90.5172 64.7678 90.3813 64.8892 90.2143L75.3569 75.8212C75.4432 75.702 75.5091 75.5694 75.5519 75.4286L77.3419 69.4777L79.5323 71.6681V88.1365C79.5323 88.4835 79.6701 88.8163 79.9155 89.0617C80.1609 89.3071 80.4937 89.4449 80.8407 89.4449H88.6915C89.0386 89.4449 89.3714 89.3071 89.6168 89.0617C89.8621 88.8163 90 88.4835 90 88.1365V68.5095C89.9999 68.3428 89.9684 68.1777 89.9071 68.0227ZM13.7412 77.2435C13.6184 77.3662 13.4518 77.435 13.2782 77.4349C13.1046 77.4348 12.9382 77.3657 12.8155 77.2428C12.6928 77.12 12.624 76.9534 12.6241 76.7798C12.6241 76.6939 12.6411 76.6088 12.6741 76.5294C12.707 76.45 12.7553 76.3778 12.8161 76.3171L14.2031 74.9301L15.1295 75.8552L13.7412 77.2435ZM22.9934 87.4207C22.8707 87.2981 22.8018 87.1317 22.8018 86.9582C22.8018 86.7847 22.8707 86.6183 22.9934 86.4957L24.3804 85.1074L25.3068 86.0325L23.9224 87.4207C23.8616 87.4821 23.7892 87.5307 23.7095 87.5639C23.6298 87.5972 23.5443 87.6143 23.4579 87.6143C23.3715 87.6143 23.286 87.5972 23.2063 87.5639C23.1266 87.5307 23.0542 87.4821 22.9934 87.4207ZM46.5864 64.7529L27.1569 84.1823L16.0533 73.0799L35.484 53.6505C35.7331 53.4123 36.0645 53.2794 36.4091 53.2794C36.7537 53.2794 37.0851 53.4123 37.3342 53.6505L46.5864 62.9014C46.708 63.0229 46.8045 63.1672 46.8704 63.3261C46.9362 63.4849 46.9701 63.6552 46.9701 63.8271C46.9701 63.9991 46.9362 64.1693 46.8704 64.3282C46.8045 64.487 46.708 64.6313 46.5864 64.7529ZM67.7561 20.0962C67.7561 18.8022 68.1398 17.5373 68.8586 16.4615C69.5775 15.3856 70.5993 14.547 71.7948 14.0519C72.9902 13.5567 74.3057 13.4271 75.5747 13.6796C76.8438 13.932 78.0096 14.5551 78.9245 15.4701C79.8395 16.385 80.4626 17.5507 80.715 18.8198C80.9675 20.0889 80.8379 21.4044 80.3427 22.5998C79.8475 23.7953 79.009 24.8171 77.9331 25.5359C76.8572 26.2548 75.5923 26.6385 74.2984 26.6385C72.5639 26.6364 70.901 25.9465 69.6746 24.72C68.4481 23.4935 67.7581 21.8307 67.7561 20.0962ZM62.3979 52.1419L59.0312 48.7739L63.8307 42.6018V48.9217C63.8307 49.3548 63.8621 49.784 63.8935 50.2119L62.3979 52.1419ZM73.109 74.4617L63.5781 87.5673L59.043 83.9389L66.2278 73.1611C66.3153 73.0295 66.3782 72.8832 66.4136 72.7293L69.075 61.2148L75.2405 67.3803L73.109 74.4617ZM87.3831 86.828H82.1492V71.1264C82.1491 70.7794 82.0112 70.4466 81.7658 70.2013L70.6569 59.0924C69.3178 57.7596 68.2563 56.1744 67.5338 54.4286C66.8112 52.6828 66.4421 50.8111 66.4476 48.9217V33.1809C66.4476 32.1398 66.8612 31.1413 67.5973 30.4052C68.3335 29.669 69.3319 29.2555 70.373 29.2555H78.2238C79.2649 29.2555 80.2633 29.669 80.9995 30.4052C81.7356 31.1413 82.1492 32.1398 82.1492 33.1809V42.3284L80.6157 41.4517L78.1571 34.0758L75.671 34.9028L78.2879 42.7536C78.3899 43.0591 78.6009 43.3163 78.8806 43.4759L86.8793 48.0464L84.2624 52.4035L75.2981 47.922L70.2552 36.575L67.8634 37.6375L73.0972 49.4137C73.2204 49.6915 73.4365 49.9177 73.7083 50.0535L82.1492 54.2707V55.4248C82.1493 55.5914 82.1808 55.7566 82.2421 55.9115L87.3831 68.7607V86.828Z" fill="black"/>
<path d="M34.1184 64.968L27.5762 71.5103L29.4266 73.3607L35.9689 66.8184L34.1184 64.968Z" fill="black"/>
</svg>
