<svg width="24" height="25" viewBox="0 0 24 25" fill="none" xmlns="http://www.w3.org/2000/svg">
<path fill-rule="evenodd" clip-rule="evenodd" d="M21.8181 6.56749C21.1356 6.86994 20.4032 7.07507 19.6336 7.16664C20.4194 6.69613 21.0208 5.94982 21.3059 5.06328C20.5689 5.499 19.7553 5.8154 18.8885 5.98691C18.1943 5.2464 17.2069 4.78516 16.1118 4.78516C14.0108 4.78516 12.3072 6.4887 12.3072 8.58858C12.3072 8.8864 12.3408 9.17728 12.4057 9.45543C9.24434 9.29664 6.44104 7.782 4.56483 5.48046C4.23686 6.04137 4.05028 6.69494 4.05028 7.39261C4.05028 8.71258 4.72243 9.87725 5.74225 10.5586C5.11877 10.5378 4.53237 10.3663 4.01901 10.0812V10.1287C4.01901 11.9713 5.33086 13.5091 7.07031 13.8591C6.75161 13.9449 6.41555 13.9924 6.06789 13.9924C5.82222 13.9924 5.58464 13.9681 5.35171 13.9217C5.8361 15.434 7.24067 16.5338 8.90483 16.5639C7.6034 17.5838 5.96243 18.1899 4.1801 18.1899C3.87301 18.1899 3.57052 18.1713 3.27271 18.1377C4.95655 19.2189 6.95561 19.8494 9.10416 19.8494C16.1026 19.8494 19.928 14.0527 19.928 9.02549L19.9153 8.53297C20.6627 7.99985 21.3094 7.33003 21.8181 6.56749Z" fill="white"/>
<mask id="mask0_504_19603" style="mask-type:luminance" maskUnits="userSpaceOnUse" x="3" y="4" width="19" height="16">
<path fill-rule="evenodd" clip-rule="evenodd" d="M21.8181 6.56749C21.1356 6.86994 20.4032 7.07507 19.6336 7.16664C20.4194 6.69613 21.0208 5.94982 21.3059 5.06328C20.5689 5.499 19.7553 5.8154 18.8885 5.98691C18.1943 5.2464 17.2069 4.78516 16.1118 4.78516C14.0108 4.78516 12.3072 6.4887 12.3072 8.58858C12.3072 8.8864 12.3408 9.17728 12.4057 9.45543C9.24434 9.29664 6.44104 7.782 4.56483 5.48046C4.23686 6.04137 4.05028 6.69494 4.05028 7.39261C4.05028 8.71258 4.72243 9.87725 5.74225 10.5586C5.11877 10.5378 4.53237 10.3663 4.01901 10.0812V10.1287C4.01901 11.9713 5.33086 13.5091 7.07031 13.8591C6.75161 13.9449 6.41555 13.9924 6.06789 13.9924C5.82222 13.9924 5.58464 13.9681 5.35171 13.9217C5.8361 15.434 7.24067 16.5338 8.90483 16.5639C7.6034 17.5838 5.96243 18.1899 4.1801 18.1899C3.87301 18.1899 3.57052 18.1713 3.27271 18.1377C4.95655 19.2189 6.95561 19.8494 9.10416 19.8494C16.1026 19.8494 19.928 14.0527 19.928 9.02549L19.9153 8.53297C20.6627 7.99985 21.3094 7.33003 21.8181 6.56749Z" fill="white"/>
</mask>
<g mask="url(#mask0_504_19603)">
</g>
</svg>
