<svg width="83" height="38" viewBox="0 0 83 38" fill="none" xmlns="http://www.w3.org/2000/svg">
<path opacity="0.21" d="M0.51416 0C23.3523 1.01725 46.1452 3.83527 68.8113 8.01949C72.1615 8.68778 75.5254 9.16842 78.8756 9.83672C80.2383 10.1165 81.6282 10.1758 82.957 10.7387C79.5502 10.8704 76.1411 10.663 72.7343 10.742C68.8068 10.7947 64.8771 10.6959 60.9519 10.9001C45.7694 11.2754 30.5938 12.4012 15.4634 14.2415C14.9586 14.202 14.7549 14.9493 14.5648 15.4925C12.9077 21.0462 11.5337 26.7678 10.1597 32.4796C9.71598 34.2869 9.37869 36.1503 8.86257 37.9214C8.51397 36.9437 8.24006 35.9198 8.00011 34.8762C5.74324 25.902 3.66745 16.8291 1.8203 7.65736C1.35398 5.39571 1.01669 3.08467 0.51416 0.839479L0.51416 0Z" fill="white"/>
</svg>
