<svg width="83" height="38" viewBox="0 0 83 38" fill="none" xmlns="http://www.w3.org/2000/svg">
<path opacity="0.21" d="M82.4858 37.9214C59.6477 36.9041 36.8548 34.0861 14.1887 29.9019C10.8385 29.2336 7.47464 28.753 4.12441 28.0847C2.76168 27.8048 1.37179 27.7456 0.0430118 27.1826C3.44983 27.051 6.85892 27.2584 10.2657 27.1794C14.1932 27.1267 18.1229 27.2254 22.0481 27.0213C37.2306 26.646 52.4062 25.5201 67.5366 23.6799C68.0414 23.7194 68.2451 22.9721 68.4352 22.4289C70.0923 16.8752 71.4663 11.1535 72.8403 5.44179C73.284 3.63444 73.6213 1.77113 74.1374 -9.1838e-06C74.486 0.97774 74.7599 2.00157 74.9999 3.04516C77.2568 12.0194 79.3325 21.0923 81.1797 30.264C81.646 32.5257 81.9833 34.8367 82.4858 37.0819L82.4858 37.9214Z" fill="white"/>
</svg>
